G04 EAGLE Gerber RS-274X export*
G75*
%MOMM*%
%FSLAX34Y34*%
%LPD*%
%INSilkscreen Top*%
%IPPOS*%
%AMOC8*
5,1,8,0,0,1.08239X$1,22.5*%
G01*
G04 Define Apertures*
%ADD10C,0.228600*%
%ADD11C,0.203200*%
%ADD12C,0.127000*%
G36*
X40497Y344831D02*
X40751Y344850D01*
X40996Y344882D01*
X41234Y344927D01*
X41685Y345054D01*
X42104Y345232D01*
X42490Y345461D01*
X42844Y345741D01*
X43165Y346072D01*
X43454Y346454D01*
X43709Y346884D01*
X43931Y347360D01*
X44118Y347881D01*
X44271Y348449D01*
X44391Y349062D01*
X44476Y349720D01*
X44527Y350425D01*
X44544Y351175D01*
X44528Y351937D01*
X44479Y352651D01*
X44398Y353316D01*
X44285Y353934D01*
X44139Y354503D01*
X43960Y355024D01*
X43749Y355497D01*
X43506Y355922D01*
X43229Y356298D01*
X42916Y356623D01*
X42567Y356899D01*
X42183Y357124D01*
X41762Y357299D01*
X41539Y357368D01*
X41306Y357425D01*
X41065Y357468D01*
X40815Y357500D01*
X40556Y357518D01*
X40287Y357525D01*
X40012Y357519D01*
X39746Y357500D01*
X39489Y357469D01*
X39242Y357426D01*
X39004Y357370D01*
X38775Y357302D01*
X38346Y357128D01*
X37955Y356905D01*
X37602Y356633D01*
X37286Y356311D01*
X37007Y355939D01*
X36764Y355518D01*
X36553Y355047D01*
X36375Y354526D01*
X36229Y353956D01*
X36115Y353335D01*
X36034Y352665D01*
X35986Y351945D01*
X35969Y351175D01*
X35986Y350421D01*
X36036Y349713D01*
X36120Y349052D01*
X36237Y348438D01*
X36387Y347870D01*
X36570Y347348D01*
X36788Y346874D01*
X37038Y346445D01*
X37322Y346065D01*
X37638Y345736D01*
X37988Y345458D01*
X38371Y345230D01*
X38788Y345053D01*
X39237Y344926D01*
X39474Y344882D01*
X39719Y344850D01*
X39973Y344831D01*
X40235Y344825D01*
X40497Y344831D01*
G37*
G36*
X50466Y344831D02*
X50719Y344850D01*
X50965Y344882D01*
X51203Y344927D01*
X51654Y345054D01*
X52072Y345232D01*
X52459Y345461D01*
X52812Y345741D01*
X53134Y346072D01*
X53422Y346454D01*
X53678Y346884D01*
X53899Y347360D01*
X54087Y347881D01*
X54240Y348449D01*
X54359Y349062D01*
X54445Y349720D01*
X54496Y350425D01*
X54513Y351175D01*
X54497Y351937D01*
X54448Y352651D01*
X54367Y353316D01*
X54253Y353934D01*
X54107Y354503D01*
X53929Y355024D01*
X53718Y355497D01*
X53475Y355922D01*
X53198Y356298D01*
X52885Y356623D01*
X52536Y356899D01*
X52151Y357124D01*
X51731Y357299D01*
X51508Y357368D01*
X51275Y357425D01*
X51034Y357468D01*
X50784Y357500D01*
X50524Y357518D01*
X50256Y357525D01*
X49981Y357519D01*
X49714Y357500D01*
X49458Y357469D01*
X49210Y357426D01*
X48972Y357370D01*
X48744Y357302D01*
X48315Y357128D01*
X47924Y356905D01*
X47570Y356633D01*
X47254Y356311D01*
X46976Y355939D01*
X46733Y355518D01*
X46522Y355047D01*
X46344Y354526D01*
X46198Y353956D01*
X46084Y353335D01*
X46003Y352665D01*
X45954Y351945D01*
X45938Y351175D01*
X45955Y350421D01*
X46005Y349713D01*
X46088Y349052D01*
X46205Y348438D01*
X46356Y347870D01*
X46539Y347348D01*
X46756Y346874D01*
X47007Y346445D01*
X47290Y346065D01*
X47607Y345736D01*
X47957Y345458D01*
X48340Y345230D01*
X48756Y345053D01*
X49206Y344926D01*
X49443Y344882D01*
X49688Y344850D01*
X49942Y344831D01*
X50204Y344825D01*
X50466Y344831D01*
G37*
G36*
X74929Y344983D02*
X74920Y346064D01*
X74909Y346352D01*
X74894Y346471D01*
X74938Y346471D01*
X75037Y346272D01*
X75148Y346086D01*
X75271Y345912D01*
X75404Y345751D01*
X75549Y345603D01*
X75705Y345468D01*
X75872Y345346D01*
X76050Y345236D01*
X76240Y345140D01*
X76440Y345056D01*
X76652Y344986D01*
X76876Y344928D01*
X77110Y344883D01*
X77356Y344851D01*
X77613Y344831D01*
X77881Y344825D01*
X78303Y344844D01*
X78698Y344902D01*
X79065Y344999D01*
X79406Y345135D01*
X79719Y345309D01*
X80005Y345522D01*
X80264Y345774D01*
X80495Y346064D01*
X80699Y346393D01*
X80876Y346761D01*
X81026Y347168D01*
X81149Y347613D01*
X81244Y348097D01*
X81312Y348620D01*
X81353Y349182D01*
X81366Y349782D01*
X81353Y350390D01*
X81312Y350955D01*
X81245Y351479D01*
X81150Y351961D01*
X81028Y352401D01*
X80879Y352799D01*
X80703Y353155D01*
X80499Y353470D01*
X80269Y353745D01*
X80011Y353983D01*
X79725Y354185D01*
X79411Y354350D01*
X79070Y354478D01*
X78701Y354570D01*
X78305Y354625D01*
X77881Y354643D01*
X77605Y354637D01*
X77343Y354618D01*
X77095Y354586D01*
X76860Y354541D01*
X76639Y354484D01*
X76432Y354414D01*
X76239Y354331D01*
X76059Y354236D01*
X75890Y354127D01*
X75730Y354003D01*
X75435Y353711D01*
X75174Y353361D01*
X74946Y352953D01*
X74911Y352953D01*
X74890Y353566D01*
X74850Y354227D01*
X74824Y354477D01*
X73300Y354477D01*
X73323Y354178D01*
X73339Y353756D01*
X73352Y352541D01*
X73352Y341278D01*
X74929Y341278D01*
X74929Y344983D01*
G37*
G36*
X87567Y344844D02*
X88041Y344901D01*
X88485Y344996D01*
X88898Y345129D01*
X89280Y345300D01*
X89631Y345510D01*
X89951Y345757D01*
X90240Y346042D01*
X90497Y346366D01*
X90719Y346730D01*
X90908Y347134D01*
X91062Y347577D01*
X91181Y348060D01*
X91267Y348583D01*
X91318Y349145D01*
X91335Y349747D01*
X91319Y350355D01*
X91271Y350922D01*
X91191Y351447D01*
X91079Y351931D01*
X90935Y352374D01*
X90759Y352776D01*
X90551Y353137D01*
X90310Y353456D01*
X90036Y353737D01*
X89726Y353979D01*
X89381Y354185D01*
X88999Y354353D01*
X88581Y354484D01*
X88128Y354577D01*
X87639Y354633D01*
X87114Y354652D01*
X86599Y354633D01*
X86118Y354575D01*
X85670Y354479D01*
X85255Y354345D01*
X84874Y354173D01*
X84525Y353962D01*
X84210Y353713D01*
X83928Y353426D01*
X83679Y353100D01*
X83463Y352736D01*
X83281Y352334D01*
X83131Y351893D01*
X83015Y351414D01*
X82932Y350897D01*
X82882Y350341D01*
X82866Y349747D01*
X82882Y349167D01*
X82932Y348622D01*
X83015Y348112D01*
X83131Y347637D01*
X83280Y347198D01*
X83462Y346794D01*
X83677Y346424D01*
X83926Y346090D01*
X84206Y345794D01*
X84519Y345537D01*
X84863Y345319D01*
X85239Y345141D01*
X85647Y345003D01*
X86087Y344904D01*
X86558Y344845D01*
X87061Y344825D01*
X87567Y344844D01*
G37*
G36*
X131410Y344844D02*
X131885Y344901D01*
X132329Y344996D01*
X132742Y345129D01*
X133124Y345300D01*
X133475Y345510D01*
X133795Y345757D01*
X134084Y346042D01*
X134341Y346366D01*
X134563Y346730D01*
X134751Y347134D01*
X134905Y347577D01*
X135025Y348060D01*
X135111Y348583D01*
X135162Y349145D01*
X135179Y349747D01*
X135163Y350355D01*
X135115Y350922D01*
X135035Y351447D01*
X134923Y351931D01*
X134779Y352374D01*
X134603Y352776D01*
X134394Y353137D01*
X134154Y353456D01*
X133880Y353737D01*
X133570Y353979D01*
X133224Y354185D01*
X132843Y354353D01*
X132425Y354484D01*
X131972Y354577D01*
X131482Y354633D01*
X130957Y354652D01*
X130443Y354633D01*
X129962Y354575D01*
X129514Y354479D01*
X129099Y354345D01*
X128717Y354173D01*
X128369Y353962D01*
X128054Y353713D01*
X127771Y353426D01*
X127523Y353100D01*
X127307Y352736D01*
X127124Y352334D01*
X126975Y351893D01*
X126859Y351414D01*
X126776Y350897D01*
X126726Y350341D01*
X126709Y349747D01*
X126726Y349167D01*
X126776Y348622D01*
X126859Y348112D01*
X126974Y347637D01*
X127123Y347198D01*
X127306Y346794D01*
X127521Y346424D01*
X127769Y346090D01*
X128050Y345794D01*
X128363Y345537D01*
X128707Y345319D01*
X129083Y345141D01*
X129491Y345003D01*
X129930Y344904D01*
X130402Y344845D01*
X130905Y344825D01*
X131410Y344844D01*
G37*
G36*
X138736Y350492D02*
X138746Y350832D01*
X138773Y351153D01*
X138819Y351454D01*
X138883Y351735D01*
X138966Y351997D01*
X139067Y352239D01*
X139186Y352461D01*
X139323Y352664D01*
X139477Y352844D01*
X139643Y353001D01*
X139823Y353133D01*
X140015Y353242D01*
X140221Y353326D01*
X140440Y353386D01*
X140672Y353422D01*
X140917Y353434D01*
X141153Y353426D01*
X141370Y353402D01*
X141568Y353361D01*
X141747Y353303D01*
X141907Y353229D01*
X142049Y353139D01*
X142171Y353032D01*
X142275Y352909D01*
X142363Y352764D01*
X142440Y352593D01*
X142504Y352395D01*
X142557Y352171D01*
X142599Y351920D01*
X142628Y351643D01*
X142646Y351339D01*
X142652Y351008D01*
X142652Y345000D01*
X144211Y345000D01*
X144211Y350492D01*
X144220Y350834D01*
X144246Y351156D01*
X144291Y351459D01*
X144354Y351741D01*
X144435Y352003D01*
X144533Y352245D01*
X144650Y352466D01*
X144784Y352668D01*
X144935Y352848D01*
X145100Y353003D01*
X145279Y353135D01*
X145473Y353243D01*
X145681Y353327D01*
X145903Y353387D01*
X146140Y353423D01*
X146391Y353434D01*
X146627Y353426D01*
X146844Y353402D01*
X147042Y353361D01*
X147221Y353303D01*
X147382Y353229D01*
X147523Y353139D01*
X147645Y353032D01*
X147749Y352909D01*
X147837Y352764D01*
X147914Y352593D01*
X147979Y352395D01*
X148031Y352171D01*
X148073Y351920D01*
X148102Y351643D01*
X148120Y351339D01*
X148126Y351008D01*
X148126Y345000D01*
X149685Y345000D01*
X149685Y351315D01*
X149674Y351744D01*
X149644Y352141D01*
X149593Y352508D01*
X149522Y352843D01*
X149430Y353147D01*
X149318Y353420D01*
X149185Y353662D01*
X149032Y353872D01*
X148857Y354055D01*
X148657Y354213D01*
X148433Y354347D01*
X148184Y354457D01*
X147910Y354542D01*
X147612Y354603D01*
X147290Y354640D01*
X146943Y354652D01*
X146700Y354645D01*
X146467Y354626D01*
X146242Y354593D01*
X146027Y354547D01*
X145821Y354488D01*
X145624Y354415D01*
X145436Y354330D01*
X145257Y354232D01*
X145086Y354118D01*
X144922Y353988D01*
X144612Y353678D01*
X144329Y353300D01*
X144070Y352856D01*
X144044Y352856D01*
X143977Y353083D01*
X143898Y353293D01*
X143807Y353488D01*
X143704Y353667D01*
X143589Y353829D01*
X143462Y353976D01*
X143323Y354108D01*
X143173Y354223D01*
X143009Y354323D01*
X142831Y354411D01*
X142640Y354484D01*
X142434Y354545D01*
X142214Y354592D01*
X141980Y354625D01*
X141731Y354645D01*
X141469Y354652D01*
X141237Y354646D01*
X141014Y354627D01*
X140800Y354596D01*
X140595Y354553D01*
X140213Y354430D01*
X139866Y354258D01*
X139704Y354150D01*
X139547Y354022D01*
X139395Y353876D01*
X139247Y353710D01*
X138965Y353322D01*
X138701Y352856D01*
X138675Y352856D01*
X138645Y353798D01*
X138623Y354240D01*
X138605Y354477D01*
X137116Y354477D01*
X137139Y354212D01*
X137156Y353787D01*
X137169Y352454D01*
X137169Y345000D01*
X138736Y345000D01*
X138736Y350492D01*
G37*
G36*
X102481Y344834D02*
X102832Y344860D01*
X103166Y344904D01*
X103484Y344965D01*
X103784Y345044D01*
X104068Y345140D01*
X104335Y345254D01*
X104585Y345385D01*
X104817Y345534D01*
X105034Y345701D01*
X105233Y345885D01*
X105415Y346086D01*
X105580Y346305D01*
X105729Y346542D01*
X105860Y346796D01*
X105975Y347067D01*
X104591Y347461D01*
X104457Y347160D01*
X104273Y346885D01*
X104038Y346638D01*
X103755Y346419D01*
X103594Y346322D01*
X103420Y346239D01*
X103234Y346168D01*
X103035Y346110D01*
X102824Y346065D01*
X102599Y346033D01*
X102362Y346014D01*
X102112Y346007D01*
X101798Y346021D01*
X101503Y346063D01*
X101228Y346132D01*
X100972Y346228D01*
X100735Y346353D01*
X100518Y346505D01*
X100320Y346685D01*
X100142Y346892D01*
X99984Y347125D01*
X99847Y347381D01*
X99731Y347660D01*
X99636Y347963D01*
X99562Y348288D01*
X99510Y348638D01*
X99478Y349010D01*
X99467Y349406D01*
X106229Y349406D01*
X106229Y349616D01*
X106213Y350226D01*
X106164Y350796D01*
X106082Y351327D01*
X105968Y351819D01*
X105821Y352272D01*
X105641Y352685D01*
X105429Y353058D01*
X105184Y353393D01*
X104907Y353688D01*
X104597Y353944D01*
X104254Y354160D01*
X103879Y354337D01*
X103471Y354475D01*
X103030Y354573D01*
X102557Y354632D01*
X102051Y354652D01*
X101556Y354632D01*
X101090Y354574D01*
X100653Y354476D01*
X100246Y354339D01*
X99868Y354163D01*
X99520Y353947D01*
X99201Y353693D01*
X98911Y353399D01*
X98654Y353069D01*
X98430Y352705D01*
X98241Y352306D01*
X98087Y351873D01*
X97967Y351406D01*
X97881Y350905D01*
X97829Y350369D01*
X97812Y349800D01*
X97829Y349201D01*
X97881Y348641D01*
X97967Y348118D01*
X98087Y347634D01*
X98241Y347188D01*
X98430Y346780D01*
X98654Y346409D01*
X98911Y346077D01*
X99202Y345784D01*
X99523Y345529D01*
X99877Y345314D01*
X100261Y345138D01*
X100677Y345001D01*
X101124Y344903D01*
X101603Y344844D01*
X102112Y344825D01*
X102481Y344834D01*
G37*
G36*
X156293Y344834D02*
X156644Y344860D01*
X156979Y344904D01*
X157296Y344965D01*
X157597Y345044D01*
X157880Y345140D01*
X158147Y345254D01*
X158397Y345385D01*
X158630Y345534D01*
X158846Y345701D01*
X159045Y345885D01*
X159227Y346086D01*
X159393Y346305D01*
X159541Y346542D01*
X159673Y346796D01*
X159787Y347067D01*
X158404Y347461D01*
X158269Y347160D01*
X158085Y346885D01*
X157851Y346638D01*
X157567Y346419D01*
X157406Y346322D01*
X157233Y346239D01*
X157047Y346168D01*
X156848Y346110D01*
X156636Y346065D01*
X156412Y346033D01*
X156175Y346014D01*
X155925Y346007D01*
X155611Y346021D01*
X155316Y346063D01*
X155040Y346132D01*
X154784Y346228D01*
X154548Y346353D01*
X154330Y346505D01*
X154133Y346685D01*
X153954Y346892D01*
X153796Y347125D01*
X153659Y347381D01*
X153543Y347660D01*
X153448Y347963D01*
X153375Y348288D01*
X153322Y348638D01*
X153290Y349010D01*
X153280Y349406D01*
X160041Y349406D01*
X160041Y349616D01*
X160025Y350226D01*
X159976Y350796D01*
X159895Y351327D01*
X159780Y351819D01*
X159633Y352272D01*
X159454Y352685D01*
X159242Y353058D01*
X158997Y353393D01*
X158720Y353688D01*
X158409Y353944D01*
X158067Y354160D01*
X157691Y354337D01*
X157283Y354475D01*
X156843Y354573D01*
X156370Y354632D01*
X155864Y354652D01*
X155368Y354632D01*
X154902Y354574D01*
X154465Y354476D01*
X154058Y354339D01*
X153680Y354163D01*
X153332Y353947D01*
X153013Y353693D01*
X152724Y353399D01*
X152466Y353069D01*
X152243Y352705D01*
X152054Y352306D01*
X151899Y351873D01*
X151779Y351406D01*
X151693Y350905D01*
X151642Y350369D01*
X151624Y349800D01*
X151642Y349201D01*
X151693Y348641D01*
X151779Y348118D01*
X151899Y347634D01*
X152054Y347188D01*
X152243Y346780D01*
X152466Y346409D01*
X152724Y346077D01*
X153014Y345784D01*
X153336Y345529D01*
X153689Y345314D01*
X154074Y345138D01*
X154489Y345001D01*
X154937Y344903D01*
X155415Y344844D01*
X155925Y344825D01*
X156293Y344834D01*
G37*
G36*
X171231Y344834D02*
X171582Y344860D01*
X171916Y344904D01*
X172234Y344965D01*
X172534Y345044D01*
X172818Y345140D01*
X173085Y345254D01*
X173335Y345385D01*
X173567Y345534D01*
X173784Y345701D01*
X173983Y345885D01*
X174165Y346086D01*
X174330Y346305D01*
X174479Y346542D01*
X174610Y346796D01*
X174725Y347067D01*
X173341Y347461D01*
X173207Y347160D01*
X173023Y346885D01*
X172788Y346638D01*
X172505Y346419D01*
X172344Y346322D01*
X172170Y346239D01*
X171984Y346168D01*
X171785Y346110D01*
X171574Y346065D01*
X171349Y346033D01*
X171112Y346014D01*
X170862Y346007D01*
X170548Y346021D01*
X170253Y346063D01*
X169978Y346132D01*
X169722Y346228D01*
X169485Y346353D01*
X169268Y346505D01*
X169070Y346685D01*
X168892Y346892D01*
X168734Y347125D01*
X168597Y347381D01*
X168481Y347660D01*
X168386Y347963D01*
X168312Y348288D01*
X168260Y348638D01*
X168228Y349010D01*
X168217Y349406D01*
X174979Y349406D01*
X174979Y349616D01*
X174963Y350226D01*
X174914Y350796D01*
X174832Y351327D01*
X174718Y351819D01*
X174571Y352272D01*
X174391Y352685D01*
X174179Y353058D01*
X173934Y353393D01*
X173657Y353688D01*
X173347Y353944D01*
X173004Y354160D01*
X172629Y354337D01*
X172221Y354475D01*
X171780Y354573D01*
X171307Y354632D01*
X170801Y354652D01*
X170306Y354632D01*
X169840Y354574D01*
X169403Y354476D01*
X168996Y354339D01*
X168618Y354163D01*
X168270Y353947D01*
X167951Y353693D01*
X167661Y353399D01*
X167404Y353069D01*
X167180Y352705D01*
X166991Y352306D01*
X166837Y351873D01*
X166717Y351406D01*
X166631Y350905D01*
X166579Y350369D01*
X166562Y349800D01*
X166579Y349201D01*
X166631Y348641D01*
X166717Y348118D01*
X166837Y347634D01*
X166991Y347188D01*
X167180Y346780D01*
X167404Y346409D01*
X167661Y346077D01*
X167952Y345784D01*
X168273Y345529D01*
X168627Y345314D01*
X169011Y345138D01*
X169427Y345001D01*
X169874Y344903D01*
X170353Y344844D01*
X170862Y344825D01*
X171231Y344834D01*
G37*
G36*
X58351Y349730D02*
X59962Y350956D01*
X64893Y345000D01*
X66969Y345000D01*
X61013Y351981D01*
X66268Y357341D01*
X64298Y357341D01*
X58351Y351157D01*
X58351Y357341D01*
X56678Y357341D01*
X56678Y345000D01*
X58351Y345000D01*
X58351Y349730D01*
G37*
%LPC*%
G36*
X39914Y346131D02*
X39599Y346188D01*
X39308Y346284D01*
X39040Y346417D01*
X38797Y346588D01*
X38576Y346797D01*
X38380Y347044D01*
X38207Y347330D01*
X38056Y347656D01*
X37926Y348027D01*
X37815Y348441D01*
X37724Y348900D01*
X37654Y349402D01*
X37604Y349949D01*
X37574Y350540D01*
X37563Y351175D01*
X37573Y351828D01*
X37603Y352433D01*
X37653Y352990D01*
X37722Y353500D01*
X37812Y353962D01*
X37921Y354377D01*
X38050Y354744D01*
X38198Y355064D01*
X38370Y355341D01*
X38567Y355581D01*
X38790Y355784D01*
X39038Y355950D01*
X39312Y356080D01*
X39612Y356172D01*
X39937Y356227D01*
X40287Y356246D01*
X40630Y356227D01*
X40947Y356171D01*
X41239Y356077D01*
X41506Y355946D01*
X41748Y355777D01*
X41965Y355571D01*
X42157Y355327D01*
X42324Y355046D01*
X42468Y354723D01*
X42594Y354354D01*
X42700Y353939D01*
X42787Y353478D01*
X42854Y352971D01*
X42903Y352418D01*
X42932Y351820D01*
X42941Y351175D01*
X42931Y350552D01*
X42901Y349970D01*
X42850Y349431D01*
X42779Y348933D01*
X42688Y348476D01*
X42577Y348061D01*
X42445Y347688D01*
X42293Y347356D01*
X42119Y347065D01*
X41923Y346812D01*
X41702Y346598D01*
X41459Y346423D01*
X41192Y346287D01*
X40902Y346190D01*
X40589Y346132D01*
X40252Y346112D01*
X39914Y346131D01*
G37*
G36*
X49883Y346131D02*
X49568Y346188D01*
X49277Y346284D01*
X49009Y346417D01*
X48765Y346588D01*
X48545Y346797D01*
X48349Y347044D01*
X48176Y347330D01*
X48025Y347656D01*
X47894Y348027D01*
X47784Y348441D01*
X47693Y348900D01*
X47623Y349402D01*
X47572Y349949D01*
X47542Y350540D01*
X47532Y351175D01*
X47542Y351828D01*
X47572Y352433D01*
X47622Y352990D01*
X47691Y353500D01*
X47780Y353962D01*
X47889Y354377D01*
X48018Y354744D01*
X48167Y355064D01*
X48339Y355341D01*
X48536Y355581D01*
X48759Y355784D01*
X49007Y355950D01*
X49281Y356080D01*
X49580Y356172D01*
X49905Y356227D01*
X50256Y356246D01*
X50598Y356227D01*
X50916Y356171D01*
X51208Y356077D01*
X51475Y355946D01*
X51717Y355777D01*
X51934Y355571D01*
X52126Y355327D01*
X52293Y355046D01*
X52437Y354723D01*
X52563Y354354D01*
X52669Y353939D01*
X52756Y353478D01*
X52823Y352971D01*
X52871Y352418D01*
X52900Y351820D01*
X52910Y351175D01*
X52900Y350552D01*
X52869Y349970D01*
X52819Y349431D01*
X52748Y348933D01*
X52657Y348476D01*
X52545Y348061D01*
X52414Y347688D01*
X52262Y347356D01*
X52088Y347065D01*
X51891Y346812D01*
X51671Y346598D01*
X51428Y346423D01*
X51161Y346287D01*
X50871Y346190D01*
X50558Y346132D01*
X50221Y346112D01*
X49883Y346131D01*
G37*
%LPD*%
G36*
X109839Y350492D02*
X109849Y350828D01*
X109880Y351146D01*
X109931Y351445D01*
X110003Y351724D01*
X110096Y351985D01*
X110209Y352227D01*
X110342Y352451D01*
X110496Y352655D01*
X110668Y352838D01*
X110854Y352996D01*
X111056Y353130D01*
X111273Y353240D01*
X111505Y353325D01*
X111752Y353386D01*
X112014Y353422D01*
X112291Y353434D01*
X112658Y353420D01*
X112977Y353378D01*
X113249Y353306D01*
X113474Y353207D01*
X113662Y353075D01*
X113822Y352907D01*
X113955Y352703D01*
X114061Y352462D01*
X114141Y352178D01*
X114199Y351840D01*
X114233Y351451D01*
X114245Y351008D01*
X114245Y345000D01*
X115830Y345000D01*
X115830Y351315D01*
X115819Y351746D01*
X115785Y352145D01*
X115728Y352513D01*
X115649Y352849D01*
X115548Y353153D01*
X115423Y353426D01*
X115277Y353667D01*
X115107Y353877D01*
X114914Y354058D01*
X114694Y354216D01*
X114448Y354349D01*
X114176Y354458D01*
X113877Y354543D01*
X113553Y354603D01*
X113202Y354640D01*
X112826Y354652D01*
X112566Y354646D01*
X112317Y354626D01*
X112079Y354595D01*
X111852Y354550D01*
X111636Y354493D01*
X111431Y354423D01*
X111236Y354340D01*
X111052Y354245D01*
X110876Y354134D01*
X110706Y354005D01*
X110541Y353859D01*
X110381Y353694D01*
X110077Y353311D01*
X109795Y352856D01*
X109769Y352856D01*
X109738Y353798D01*
X109716Y354240D01*
X109699Y354477D01*
X108210Y354477D01*
X108233Y354212D01*
X108249Y353787D01*
X108262Y352454D01*
X108262Y345000D01*
X109839Y345000D01*
X109839Y350492D01*
G37*
%LPC*%
G36*
X86728Y346004D02*
X86435Y346049D01*
X86163Y346122D01*
X85913Y346225D01*
X85684Y346358D01*
X85478Y346519D01*
X85293Y346711D01*
X85130Y346931D01*
X84987Y347181D01*
X84864Y347460D01*
X84759Y347769D01*
X84673Y348106D01*
X84607Y348473D01*
X84559Y348868D01*
X84531Y349293D01*
X84521Y349747D01*
X84531Y350213D01*
X84560Y350647D01*
X84608Y351049D01*
X84675Y351419D01*
X84762Y351757D01*
X84868Y352063D01*
X84994Y352338D01*
X85139Y352581D01*
X85305Y352793D01*
X85495Y352977D01*
X85709Y353133D01*
X85948Y353260D01*
X86210Y353360D01*
X86496Y353430D01*
X86806Y353473D01*
X87140Y353487D01*
X87471Y353473D01*
X87778Y353431D01*
X88060Y353362D01*
X88317Y353265D01*
X88549Y353140D01*
X88757Y352987D01*
X88939Y352806D01*
X89097Y352598D01*
X89234Y352359D01*
X89352Y352086D01*
X89452Y351780D01*
X89534Y351441D01*
X89598Y351068D01*
X89643Y350661D01*
X89671Y350221D01*
X89680Y349747D01*
X89670Y349279D01*
X89642Y348843D01*
X89594Y348440D01*
X89528Y348068D01*
X89442Y347728D01*
X89337Y347420D01*
X89214Y347144D01*
X89071Y346901D01*
X88906Y346687D01*
X88716Y346502D01*
X88501Y346346D01*
X88260Y346217D01*
X87994Y346118D01*
X87702Y346047D01*
X87386Y346004D01*
X87044Y345990D01*
X86728Y346004D01*
G37*
G36*
X130572Y346004D02*
X130278Y346049D01*
X130006Y346122D01*
X129756Y346225D01*
X129528Y346358D01*
X129321Y346519D01*
X129137Y346711D01*
X128974Y346931D01*
X128831Y347181D01*
X128707Y347460D01*
X128603Y347769D01*
X128517Y348106D01*
X128450Y348473D01*
X128403Y348868D01*
X128374Y349293D01*
X128365Y349747D01*
X128374Y350213D01*
X128403Y350647D01*
X128452Y351049D01*
X128519Y351419D01*
X128606Y351757D01*
X128712Y352063D01*
X128838Y352338D01*
X128982Y352581D01*
X129149Y352793D01*
X129339Y352977D01*
X129553Y353133D01*
X129791Y353260D01*
X130054Y353360D01*
X130340Y353430D01*
X130650Y353473D01*
X130984Y353487D01*
X131315Y353473D01*
X131622Y353431D01*
X131904Y353362D01*
X132161Y353265D01*
X132393Y353140D01*
X132600Y352987D01*
X132783Y352806D01*
X132941Y352598D01*
X133078Y352359D01*
X133196Y352086D01*
X133296Y351780D01*
X133378Y351441D01*
X133442Y351068D01*
X133487Y350661D01*
X133515Y350221D01*
X133524Y349747D01*
X133514Y349279D01*
X133486Y348843D01*
X133438Y348440D01*
X133371Y348068D01*
X133286Y347728D01*
X133181Y347420D01*
X133058Y347144D01*
X132915Y346901D01*
X132750Y346687D01*
X132560Y346502D01*
X132344Y346346D01*
X132104Y346217D01*
X131838Y346118D01*
X131546Y346047D01*
X131229Y346004D01*
X130887Y345990D01*
X130572Y346004D01*
G37*
%LPD*%
G36*
X34400Y346340D02*
X31396Y346340D01*
X31396Y357341D01*
X29942Y357341D01*
X27025Y355335D01*
X27025Y353846D01*
X29811Y355834D01*
X29811Y346340D01*
X26666Y346340D01*
X26666Y345000D01*
X34400Y345000D01*
X34400Y346340D01*
G37*
%LPC*%
G36*
X77137Y346004D02*
X76837Y346045D01*
X76560Y346114D01*
X76306Y346211D01*
X76076Y346335D01*
X75869Y346487D01*
X75685Y346667D01*
X75525Y346874D01*
X75385Y347111D01*
X75264Y347378D01*
X75162Y347676D01*
X75078Y348004D01*
X75013Y348363D01*
X74966Y348753D01*
X74938Y349173D01*
X74929Y349625D01*
X74946Y350263D01*
X74998Y350839D01*
X75084Y351351D01*
X75205Y351801D01*
X75359Y352192D01*
X75544Y352527D01*
X75762Y352807D01*
X76011Y353032D01*
X76149Y353124D01*
X76301Y353204D01*
X76465Y353272D01*
X76642Y353327D01*
X76832Y353370D01*
X77035Y353401D01*
X77250Y353420D01*
X77478Y353426D01*
X77759Y353412D01*
X78021Y353373D01*
X78263Y353306D01*
X78485Y353213D01*
X78687Y353094D01*
X78870Y352948D01*
X79033Y352775D01*
X79177Y352576D01*
X79302Y352346D01*
X79411Y352081D01*
X79502Y351780D01*
X79578Y351444D01*
X79636Y351073D01*
X79678Y350666D01*
X79703Y350224D01*
X79711Y349747D01*
X79703Y349257D01*
X79677Y348804D01*
X79635Y348388D01*
X79576Y348007D01*
X79501Y347664D01*
X79408Y347357D01*
X79299Y347086D01*
X79172Y346852D01*
X79028Y346650D01*
X78863Y346475D01*
X78679Y346327D01*
X78475Y346205D01*
X78251Y346111D01*
X78007Y346044D01*
X77744Y346003D01*
X77460Y345990D01*
X77137Y346004D01*
G37*
%LPD*%
G36*
X95745Y344873D02*
X96145Y344912D01*
X96542Y344978D01*
X96933Y345070D01*
X96933Y346235D01*
X96408Y346143D01*
X96023Y346112D01*
X95767Y346130D01*
X95553Y346181D01*
X95380Y346268D01*
X95247Y346388D01*
X95150Y346552D01*
X95080Y346766D01*
X95038Y347031D01*
X95024Y347347D01*
X95024Y353329D01*
X96776Y353329D01*
X96776Y354477D01*
X95024Y354477D01*
X95024Y356596D01*
X93973Y356596D01*
X93509Y354477D01*
X92353Y354477D01*
X92353Y353329D01*
X93448Y353329D01*
X93448Y347006D01*
X93455Y346746D01*
X93477Y346503D01*
X93514Y346276D01*
X93566Y346067D01*
X93632Y345874D01*
X93714Y345698D01*
X93810Y345539D01*
X93921Y345396D01*
X94046Y345271D01*
X94187Y345162D01*
X94342Y345069D01*
X94512Y344994D01*
X94696Y344935D01*
X94896Y344893D01*
X95110Y344868D01*
X95339Y344860D01*
X95745Y344873D01*
G37*
G36*
X120651Y344873D02*
X121051Y344912D01*
X121448Y344978D01*
X121840Y345070D01*
X121840Y346235D01*
X121314Y346143D01*
X120929Y346112D01*
X120673Y346130D01*
X120459Y346181D01*
X120286Y346268D01*
X120154Y346388D01*
X120056Y346552D01*
X119986Y346766D01*
X119944Y347031D01*
X119930Y347347D01*
X119930Y353329D01*
X121682Y353329D01*
X121682Y354477D01*
X119930Y354477D01*
X119930Y356596D01*
X118879Y356596D01*
X118415Y354477D01*
X117259Y354477D01*
X117259Y353329D01*
X118354Y353329D01*
X118354Y347006D01*
X118361Y346746D01*
X118383Y346503D01*
X118420Y346276D01*
X118472Y346067D01*
X118539Y345874D01*
X118620Y345698D01*
X118716Y345539D01*
X118827Y345396D01*
X118952Y345271D01*
X119093Y345162D01*
X119248Y345069D01*
X119418Y344994D01*
X119603Y344935D01*
X119802Y344893D01*
X120017Y344868D01*
X120246Y344860D01*
X120651Y344873D01*
G37*
G36*
X164495Y344873D02*
X164895Y344912D01*
X165292Y344978D01*
X165683Y345070D01*
X165683Y346235D01*
X165158Y346143D01*
X164773Y346112D01*
X164517Y346130D01*
X164303Y346181D01*
X164130Y346268D01*
X163997Y346388D01*
X163900Y346552D01*
X163830Y346766D01*
X163788Y347031D01*
X163774Y347347D01*
X163774Y353329D01*
X165526Y353329D01*
X165526Y354477D01*
X163774Y354477D01*
X163774Y356596D01*
X162723Y356596D01*
X162259Y354477D01*
X161103Y354477D01*
X161103Y353329D01*
X162198Y353329D01*
X162198Y347006D01*
X162205Y346746D01*
X162227Y346503D01*
X162264Y346276D01*
X162316Y346067D01*
X162382Y345874D01*
X162464Y345698D01*
X162560Y345539D01*
X162671Y345396D01*
X162796Y345271D01*
X162937Y345162D01*
X163092Y345069D01*
X163262Y344994D01*
X163446Y344935D01*
X163646Y344893D01*
X163860Y344868D01*
X164089Y344860D01*
X164495Y344873D01*
G37*
G36*
X178589Y349940D02*
X178597Y350323D01*
X178621Y350682D01*
X178662Y351019D01*
X178718Y351334D01*
X178791Y351625D01*
X178880Y351893D01*
X178985Y352139D01*
X179106Y352362D01*
X179242Y352560D01*
X179393Y352731D01*
X179559Y352877D01*
X179739Y352995D01*
X179933Y353088D01*
X180142Y353154D01*
X180365Y353194D01*
X180603Y353207D01*
X181076Y353185D01*
X181273Y353157D01*
X181444Y353119D01*
X181444Y354564D01*
X181122Y354630D01*
X180805Y354652D01*
X180588Y354645D01*
X180383Y354624D01*
X180192Y354589D01*
X180012Y354540D01*
X179846Y354477D01*
X179691Y354401D01*
X179550Y354310D01*
X179421Y354205D01*
X179300Y354082D01*
X179183Y353934D01*
X178959Y353566D01*
X178749Y353102D01*
X178554Y352541D01*
X178519Y352541D01*
X178449Y354477D01*
X176960Y354477D01*
X176999Y353321D01*
X177012Y352270D01*
X177012Y345000D01*
X178589Y345000D01*
X178589Y349940D01*
G37*
G36*
X124733Y354477D02*
X123156Y354477D01*
X123156Y345000D01*
X124733Y345000D01*
X124733Y354477D01*
G37*
%LPC*%
G36*
X99485Y350614D02*
X99508Y350940D01*
X99550Y351248D01*
X99611Y351539D01*
X99692Y351811D01*
X99792Y352065D01*
X99911Y352302D01*
X100050Y352520D01*
X100207Y352721D01*
X100382Y352900D01*
X100572Y353056D01*
X100777Y353188D01*
X100997Y353295D01*
X101231Y353379D01*
X101481Y353439D01*
X101745Y353475D01*
X102025Y353487D01*
X102312Y353476D01*
X102582Y353444D01*
X102834Y353390D01*
X103069Y353315D01*
X103287Y353218D01*
X103488Y353100D01*
X103672Y352961D01*
X103838Y352799D01*
X103988Y352615D01*
X104122Y352405D01*
X104241Y352170D01*
X104344Y351909D01*
X104431Y351624D01*
X104503Y351312D01*
X104559Y350976D01*
X104600Y350614D01*
X99485Y350614D01*
G37*
G36*
X153297Y350614D02*
X153320Y350940D01*
X153362Y351248D01*
X153424Y351539D01*
X153504Y351811D01*
X153604Y352065D01*
X153724Y352302D01*
X153862Y352520D01*
X154020Y352721D01*
X154195Y352900D01*
X154385Y353056D01*
X154590Y353188D01*
X154809Y353295D01*
X155044Y353379D01*
X155294Y353439D01*
X155558Y353475D01*
X155837Y353487D01*
X156124Y353476D01*
X156394Y353444D01*
X156647Y353390D01*
X156882Y353315D01*
X157100Y353218D01*
X157301Y353100D01*
X157484Y352961D01*
X157650Y352799D01*
X157800Y352615D01*
X157934Y352405D01*
X158053Y352170D01*
X158156Y351909D01*
X158244Y351624D01*
X158315Y351312D01*
X158372Y350976D01*
X158412Y350614D01*
X153297Y350614D01*
G37*
G36*
X168235Y350614D02*
X168258Y350940D01*
X168300Y351248D01*
X168361Y351539D01*
X168442Y351811D01*
X168542Y352065D01*
X168661Y352302D01*
X168800Y352520D01*
X168957Y352721D01*
X169132Y352900D01*
X169322Y353056D01*
X169527Y353188D01*
X169747Y353295D01*
X169981Y353379D01*
X170231Y353439D01*
X170495Y353475D01*
X170775Y353487D01*
X171062Y353476D01*
X171332Y353444D01*
X171584Y353390D01*
X171819Y353315D01*
X172037Y353218D01*
X172238Y353100D01*
X172422Y352961D01*
X172588Y352799D01*
X172738Y352615D01*
X172872Y352405D01*
X172991Y352170D01*
X173094Y351909D01*
X173181Y351624D01*
X173253Y351312D01*
X173309Y350976D01*
X173350Y350614D01*
X168235Y350614D01*
G37*
%LPD*%
G36*
X124733Y357998D02*
X123156Y357998D01*
X123156Y356491D01*
X124733Y356491D01*
X124733Y357998D01*
G37*
G36*
X274645Y294838D02*
X275080Y294877D01*
X275501Y294942D01*
X275908Y295033D01*
X276301Y295150D01*
X276681Y295293D01*
X277046Y295462D01*
X277398Y295657D01*
X277733Y295877D01*
X278049Y296121D01*
X278346Y296388D01*
X278623Y296679D01*
X278881Y296995D01*
X279120Y297334D01*
X279339Y297696D01*
X279539Y298083D01*
X278173Y298766D01*
X278005Y298455D01*
X277827Y298165D01*
X277638Y297894D01*
X277440Y297643D01*
X277232Y297413D01*
X277013Y297202D01*
X276785Y297012D01*
X276546Y296841D01*
X276298Y296691D01*
X276039Y296561D01*
X275770Y296451D01*
X275491Y296360D01*
X275203Y296290D01*
X274904Y296240D01*
X274595Y296210D01*
X274276Y296200D01*
X273783Y296221D01*
X273316Y296286D01*
X272876Y296394D01*
X272461Y296545D01*
X272073Y296739D01*
X271711Y296976D01*
X271375Y297256D01*
X271066Y297579D01*
X270787Y297938D01*
X270546Y298325D01*
X270342Y298739D01*
X270175Y299181D01*
X270046Y299651D01*
X269953Y300149D01*
X269897Y300674D01*
X269879Y301227D01*
X269897Y301786D01*
X269950Y302314D01*
X270039Y302811D01*
X270163Y303278D01*
X270324Y303714D01*
X270519Y304120D01*
X270751Y304495D01*
X271017Y304840D01*
X271316Y305149D01*
X271644Y305417D01*
X271999Y305643D01*
X272384Y305829D01*
X272796Y305973D01*
X273238Y306076D01*
X273707Y306138D01*
X274206Y306158D01*
X274526Y306149D01*
X274836Y306123D01*
X275134Y306078D01*
X275422Y306016D01*
X275698Y305936D01*
X275964Y305838D01*
X276218Y305723D01*
X276461Y305589D01*
X276690Y305439D01*
X276903Y305273D01*
X277100Y305091D01*
X277281Y304893D01*
X277445Y304679D01*
X277593Y304449D01*
X277725Y304204D01*
X277840Y303942D01*
X279426Y304468D01*
X279259Y304835D01*
X279071Y305179D01*
X278861Y305500D01*
X278629Y305797D01*
X278375Y306071D01*
X278099Y306322D01*
X277801Y306550D01*
X277481Y306754D01*
X277140Y306935D01*
X276779Y307091D01*
X276398Y307224D01*
X275997Y307332D01*
X275575Y307416D01*
X275133Y307477D01*
X274671Y307513D01*
X274188Y307525D01*
X273840Y307518D01*
X273502Y307499D01*
X273174Y307466D01*
X272855Y307420D01*
X272545Y307361D01*
X272245Y307289D01*
X271955Y307205D01*
X271674Y307106D01*
X271403Y306995D01*
X271142Y306871D01*
X270890Y306734D01*
X270647Y306584D01*
X270191Y306244D01*
X269774Y305852D01*
X269400Y305414D01*
X269076Y304935D01*
X268802Y304417D01*
X268684Y304143D01*
X268578Y303859D01*
X268485Y303565D01*
X268404Y303261D01*
X268335Y302947D01*
X268279Y302623D01*
X268236Y302289D01*
X268205Y301945D01*
X268186Y301591D01*
X268180Y301227D01*
X268191Y300743D01*
X268224Y300275D01*
X268280Y299824D01*
X268358Y299389D01*
X268458Y298971D01*
X268581Y298569D01*
X268726Y298184D01*
X268893Y297816D01*
X269082Y297466D01*
X269291Y297137D01*
X269520Y296829D01*
X269769Y296542D01*
X270039Y296275D01*
X270329Y296029D01*
X270639Y295804D01*
X270969Y295600D01*
X271318Y295418D01*
X271682Y295261D01*
X272062Y295128D01*
X272457Y295019D01*
X272868Y294934D01*
X273295Y294873D01*
X273738Y294837D01*
X274197Y294825D01*
X274645Y294838D01*
G37*
G36*
X287614Y294838D02*
X288049Y294877D01*
X288470Y294942D01*
X288877Y295033D01*
X289270Y295150D01*
X289649Y295293D01*
X290015Y295462D01*
X290367Y295657D01*
X290702Y295877D01*
X291018Y296121D01*
X291315Y296388D01*
X291592Y296679D01*
X291850Y296995D01*
X292089Y297334D01*
X292308Y297696D01*
X292508Y298083D01*
X291142Y298766D01*
X290974Y298455D01*
X290796Y298165D01*
X290607Y297894D01*
X290409Y297643D01*
X290201Y297413D01*
X289982Y297202D01*
X289754Y297012D01*
X289515Y296841D01*
X289266Y296691D01*
X289008Y296561D01*
X288739Y296451D01*
X288460Y296360D01*
X288171Y296290D01*
X287872Y296240D01*
X287563Y296210D01*
X287244Y296200D01*
X286752Y296221D01*
X286285Y296286D01*
X285845Y296394D01*
X285430Y296545D01*
X285042Y296739D01*
X284680Y296976D01*
X284344Y297256D01*
X284034Y297579D01*
X283756Y297938D01*
X283515Y298325D01*
X283311Y298739D01*
X283144Y299181D01*
X283014Y299651D01*
X282922Y300149D01*
X282866Y300674D01*
X282848Y301227D01*
X282865Y301786D01*
X282919Y302314D01*
X283008Y302811D01*
X283132Y303278D01*
X283292Y303714D01*
X283488Y304120D01*
X283719Y304495D01*
X283986Y304840D01*
X284285Y305149D01*
X284612Y305417D01*
X284968Y305643D01*
X285352Y305829D01*
X285765Y305973D01*
X286206Y306076D01*
X286676Y306138D01*
X287174Y306158D01*
X287495Y306149D01*
X287805Y306123D01*
X288103Y306078D01*
X288391Y306016D01*
X288667Y305936D01*
X288932Y305838D01*
X289186Y305723D01*
X289430Y305589D01*
X289659Y305439D01*
X289872Y305273D01*
X290069Y305091D01*
X290250Y304893D01*
X290414Y304679D01*
X290562Y304449D01*
X290694Y304204D01*
X290809Y303942D01*
X292394Y304468D01*
X292228Y304835D01*
X292040Y305179D01*
X291829Y305500D01*
X291597Y305797D01*
X291343Y306071D01*
X291067Y306322D01*
X290770Y306550D01*
X290450Y306754D01*
X290109Y306935D01*
X289748Y307091D01*
X289367Y307224D01*
X288965Y307332D01*
X288544Y307416D01*
X288102Y307477D01*
X287639Y307513D01*
X287157Y307525D01*
X286809Y307518D01*
X286471Y307499D01*
X286142Y307466D01*
X285823Y307420D01*
X285514Y307361D01*
X285214Y307289D01*
X284924Y307205D01*
X284643Y307106D01*
X284372Y306995D01*
X284110Y306871D01*
X283858Y306734D01*
X283616Y306584D01*
X283160Y306244D01*
X282742Y305852D01*
X282369Y305414D01*
X282045Y304935D01*
X281771Y304417D01*
X281653Y304143D01*
X281547Y303859D01*
X281454Y303565D01*
X281373Y303261D01*
X281304Y302947D01*
X281248Y302623D01*
X281204Y302289D01*
X281173Y301945D01*
X281155Y301591D01*
X281148Y301227D01*
X281160Y300743D01*
X281193Y300275D01*
X281249Y299824D01*
X281327Y299389D01*
X281427Y298971D01*
X281550Y298569D01*
X281695Y298184D01*
X281862Y297816D01*
X282051Y297466D01*
X282260Y297137D01*
X282489Y296829D01*
X282738Y296542D01*
X283008Y296275D01*
X283298Y296029D01*
X283608Y295804D01*
X283938Y295600D01*
X284286Y295418D01*
X284650Y295261D01*
X285030Y295128D01*
X285426Y295019D01*
X285837Y294934D01*
X286264Y294873D01*
X286707Y294837D01*
X287166Y294825D01*
X287614Y294838D01*
G37*
G36*
X267185Y307341D02*
X265425Y307341D01*
X262027Y298652D01*
X261291Y296471D01*
X260555Y298652D01*
X257139Y307341D01*
X255379Y307341D01*
X260415Y295000D01*
X262149Y295000D01*
X267185Y307341D01*
G37*
G36*
X282991Y244983D02*
X282983Y246064D01*
X282972Y246352D01*
X282956Y246471D01*
X283000Y246471D01*
X283100Y246272D01*
X283211Y246086D01*
X283333Y245912D01*
X283467Y245751D01*
X283611Y245603D01*
X283767Y245468D01*
X283934Y245346D01*
X284113Y245236D01*
X284302Y245140D01*
X284503Y245056D01*
X284715Y244986D01*
X284938Y244928D01*
X285172Y244883D01*
X285418Y244851D01*
X285675Y244831D01*
X285943Y244825D01*
X286365Y244844D01*
X286760Y244902D01*
X287128Y244999D01*
X287468Y245135D01*
X287781Y245309D01*
X288067Y245522D01*
X288326Y245774D01*
X288558Y246064D01*
X288762Y246393D01*
X288939Y246761D01*
X289089Y247168D01*
X289211Y247613D01*
X289306Y248097D01*
X289375Y248620D01*
X289415Y249182D01*
X289429Y249782D01*
X289415Y250390D01*
X289375Y250955D01*
X289307Y251479D01*
X289212Y251961D01*
X289090Y252401D01*
X288941Y252799D01*
X288765Y253155D01*
X288562Y253470D01*
X288331Y253745D01*
X288073Y253983D01*
X287787Y254185D01*
X287474Y254350D01*
X287132Y254478D01*
X286764Y254570D01*
X286367Y254625D01*
X285943Y254643D01*
X285667Y254637D01*
X285406Y254618D01*
X285157Y254586D01*
X284923Y254541D01*
X284702Y254484D01*
X284495Y254414D01*
X284301Y254331D01*
X284121Y254236D01*
X283953Y254127D01*
X283792Y254003D01*
X283497Y253711D01*
X283236Y253361D01*
X283009Y252953D01*
X282974Y252953D01*
X282952Y253566D01*
X282913Y254227D01*
X282886Y254477D01*
X281362Y254477D01*
X281385Y254178D01*
X281402Y253756D01*
X281415Y252541D01*
X281415Y241278D01*
X282991Y241278D01*
X282991Y244983D01*
G37*
G36*
X260754Y244844D02*
X261229Y244901D01*
X261673Y244996D01*
X262086Y245129D01*
X262468Y245300D01*
X262819Y245510D01*
X263139Y245757D01*
X263428Y246042D01*
X263685Y246366D01*
X263907Y246730D01*
X264095Y247134D01*
X264249Y247577D01*
X264369Y248060D01*
X264454Y248583D01*
X264506Y249145D01*
X264523Y249747D01*
X264507Y250355D01*
X264459Y250922D01*
X264379Y251447D01*
X264267Y251931D01*
X264122Y252374D01*
X263946Y252776D01*
X263738Y253137D01*
X263498Y253456D01*
X263224Y253737D01*
X262914Y253979D01*
X262568Y254185D01*
X262186Y254353D01*
X261769Y254484D01*
X261315Y254577D01*
X260826Y254633D01*
X260301Y254652D01*
X259787Y254633D01*
X259306Y254575D01*
X258858Y254479D01*
X258443Y254345D01*
X258061Y254173D01*
X257713Y253962D01*
X257397Y253713D01*
X257115Y253426D01*
X256866Y253100D01*
X256651Y252736D01*
X256468Y252334D01*
X256319Y251893D01*
X256203Y251414D01*
X256120Y250897D01*
X256070Y250341D01*
X256053Y249747D01*
X256070Y249167D01*
X256119Y248622D01*
X256202Y248112D01*
X256318Y247637D01*
X256467Y247198D01*
X256649Y246794D01*
X256865Y246424D01*
X257113Y246090D01*
X257394Y245794D01*
X257706Y245537D01*
X258051Y245319D01*
X258427Y245141D01*
X258835Y245003D01*
X259274Y244904D01*
X259746Y244845D01*
X260249Y244825D01*
X260754Y244844D01*
G37*
G36*
X269697Y244831D02*
X269946Y244850D01*
X270184Y244882D01*
X270411Y244927D01*
X270627Y244984D01*
X270833Y245054D01*
X271028Y245137D01*
X271211Y245232D01*
X271387Y245343D01*
X271558Y245472D01*
X271723Y245618D01*
X271883Y245783D01*
X272186Y246166D01*
X272468Y246620D01*
X272495Y246620D01*
X272525Y245679D01*
X272547Y245236D01*
X272565Y245000D01*
X274054Y245000D01*
X274031Y245264D01*
X274014Y245690D01*
X274001Y247023D01*
X274001Y254477D01*
X272424Y254477D01*
X272424Y248985D01*
X272414Y248649D01*
X272383Y248331D01*
X272332Y248032D01*
X272260Y247752D01*
X272168Y247491D01*
X272055Y247249D01*
X271922Y247026D01*
X271768Y246822D01*
X271596Y246639D01*
X271409Y246481D01*
X271207Y246347D01*
X270990Y246237D01*
X270758Y246152D01*
X270511Y246091D01*
X270249Y246054D01*
X269972Y246042D01*
X269606Y246056D01*
X269287Y246099D01*
X269015Y246170D01*
X268790Y246270D01*
X268602Y246402D01*
X268442Y246570D01*
X268309Y246774D01*
X268203Y247014D01*
X268122Y247299D01*
X268065Y247636D01*
X268030Y248026D01*
X268019Y248468D01*
X268019Y254477D01*
X266434Y254477D01*
X266434Y248162D01*
X266445Y247731D01*
X266479Y247332D01*
X266535Y246964D01*
X266614Y246628D01*
X266716Y246324D01*
X266840Y246051D01*
X266987Y245810D01*
X267156Y245600D01*
X267350Y245418D01*
X267570Y245261D01*
X267816Y245128D01*
X268088Y245019D01*
X268386Y244934D01*
X268711Y244873D01*
X269061Y244837D01*
X269438Y244825D01*
X269697Y244831D01*
G37*
G36*
X294604Y244831D02*
X294852Y244850D01*
X295090Y244882D01*
X295317Y244927D01*
X295534Y244984D01*
X295739Y245054D01*
X295934Y245137D01*
X296118Y245232D01*
X296293Y245343D01*
X296464Y245472D01*
X296629Y245618D01*
X296789Y245783D01*
X297092Y246166D01*
X297375Y246620D01*
X297401Y246620D01*
X297431Y245679D01*
X297453Y245236D01*
X297471Y245000D01*
X298960Y245000D01*
X298937Y245264D01*
X298920Y245690D01*
X298907Y247023D01*
X298907Y254477D01*
X297331Y254477D01*
X297331Y248985D01*
X297320Y248649D01*
X297290Y248331D01*
X297238Y248032D01*
X297167Y247752D01*
X297074Y247491D01*
X296961Y247249D01*
X296828Y247026D01*
X296674Y246822D01*
X296502Y246639D01*
X296315Y246481D01*
X296113Y246347D01*
X295897Y246237D01*
X295665Y246152D01*
X295418Y246091D01*
X295155Y246054D01*
X294878Y246042D01*
X294512Y246056D01*
X294193Y246099D01*
X293921Y246170D01*
X293696Y246270D01*
X293508Y246402D01*
X293348Y246570D01*
X293215Y246774D01*
X293109Y247014D01*
X293029Y247299D01*
X292971Y247636D01*
X292937Y248026D01*
X292925Y248468D01*
X292925Y254477D01*
X291340Y254477D01*
X291340Y248162D01*
X291351Y247731D01*
X291385Y247332D01*
X291441Y246964D01*
X291521Y246628D01*
X291622Y246324D01*
X291746Y246051D01*
X291893Y245810D01*
X292062Y245600D01*
X292256Y245418D01*
X292476Y245261D01*
X292722Y245128D01*
X292994Y245019D01*
X293292Y244934D01*
X293617Y244873D01*
X293967Y244837D01*
X294344Y244825D01*
X294604Y244831D01*
G37*
%LPC*%
G36*
X259916Y246004D02*
X259622Y246049D01*
X259350Y246122D01*
X259100Y246225D01*
X258872Y246358D01*
X258665Y246519D01*
X258480Y246711D01*
X258317Y246931D01*
X258175Y247181D01*
X258051Y247460D01*
X257946Y247769D01*
X257861Y248106D01*
X257794Y248473D01*
X257747Y248868D01*
X257718Y249293D01*
X257709Y249747D01*
X257718Y250213D01*
X257747Y250647D01*
X257795Y251049D01*
X257863Y251419D01*
X257950Y251757D01*
X258056Y252063D01*
X258181Y252338D01*
X258326Y252581D01*
X258492Y252793D01*
X258683Y252977D01*
X258897Y253133D01*
X259135Y253260D01*
X259397Y253360D01*
X259683Y253430D01*
X259993Y253473D01*
X260327Y253487D01*
X260659Y253473D01*
X260965Y253431D01*
X261247Y253362D01*
X261504Y253265D01*
X261737Y253140D01*
X261944Y252987D01*
X262127Y252806D01*
X262285Y252598D01*
X262421Y252359D01*
X262540Y252086D01*
X262640Y251780D01*
X262722Y251441D01*
X262785Y251068D01*
X262831Y250661D01*
X262858Y250221D01*
X262867Y249747D01*
X262858Y249279D01*
X262829Y248843D01*
X262782Y248440D01*
X262715Y248068D01*
X262630Y247728D01*
X262525Y247420D01*
X262401Y247144D01*
X262259Y246901D01*
X262094Y246687D01*
X261904Y246502D01*
X261688Y246346D01*
X261447Y246217D01*
X261181Y246118D01*
X260890Y246047D01*
X260573Y246004D01*
X260231Y245990D01*
X259916Y246004D01*
G37*
G36*
X285199Y246004D02*
X284899Y246045D01*
X284622Y246114D01*
X284369Y246211D01*
X284138Y246335D01*
X283931Y246487D01*
X283748Y246667D01*
X283587Y246874D01*
X283447Y247111D01*
X283326Y247378D01*
X283224Y247676D01*
X283140Y248004D01*
X283075Y248363D01*
X283029Y248753D01*
X283001Y249173D01*
X282991Y249625D01*
X283009Y250263D01*
X283060Y250839D01*
X283147Y251351D01*
X283267Y251801D01*
X283421Y252192D01*
X283607Y252527D01*
X283824Y252807D01*
X284073Y253032D01*
X284212Y253124D01*
X284364Y253204D01*
X284528Y253272D01*
X284705Y253327D01*
X284895Y253370D01*
X285097Y253401D01*
X285312Y253420D01*
X285540Y253426D01*
X285822Y253412D01*
X286083Y253373D01*
X286325Y253306D01*
X286547Y253213D01*
X286750Y253094D01*
X286933Y252948D01*
X287096Y252775D01*
X287239Y252576D01*
X287365Y252346D01*
X287473Y252081D01*
X287565Y251780D01*
X287640Y251444D01*
X287699Y251073D01*
X287740Y250666D01*
X287765Y250224D01*
X287774Y249747D01*
X287765Y249257D01*
X287740Y248804D01*
X287698Y248388D01*
X287639Y248007D01*
X287563Y247664D01*
X287471Y247357D01*
X287361Y247086D01*
X287235Y246852D01*
X287090Y246650D01*
X286926Y246475D01*
X286742Y246327D01*
X286538Y246205D01*
X286314Y246111D01*
X286070Y246044D01*
X285806Y246003D01*
X285523Y245990D01*
X285199Y246004D01*
G37*
%LPD*%
G36*
X278901Y244873D02*
X279301Y244912D01*
X279698Y244978D01*
X280090Y245070D01*
X280090Y246235D01*
X279564Y246143D01*
X279179Y246112D01*
X278923Y246130D01*
X278709Y246181D01*
X278536Y246268D01*
X278404Y246388D01*
X278306Y246552D01*
X278236Y246766D01*
X278194Y247031D01*
X278180Y247347D01*
X278180Y253329D01*
X279932Y253329D01*
X279932Y254477D01*
X278180Y254477D01*
X278180Y256596D01*
X277129Y256596D01*
X276665Y254477D01*
X275509Y254477D01*
X275509Y253329D01*
X276604Y253329D01*
X276604Y247006D01*
X276611Y246746D01*
X276633Y246503D01*
X276670Y246276D01*
X276722Y246067D01*
X276789Y245874D01*
X276870Y245698D01*
X276966Y245539D01*
X277077Y245396D01*
X277202Y245271D01*
X277343Y245162D01*
X277498Y245069D01*
X277668Y244994D01*
X277853Y244935D01*
X278052Y244893D01*
X278267Y244868D01*
X278496Y244860D01*
X278901Y244873D01*
G37*
G36*
X303807Y244873D02*
X304208Y244912D01*
X304604Y244978D01*
X304996Y245070D01*
X304996Y246235D01*
X304470Y246143D01*
X304085Y246112D01*
X303830Y246130D01*
X303615Y246181D01*
X303442Y246268D01*
X303310Y246388D01*
X303212Y246552D01*
X303142Y246766D01*
X303101Y247031D01*
X303087Y247347D01*
X303087Y253329D01*
X304838Y253329D01*
X304838Y254477D01*
X303087Y254477D01*
X303087Y256596D01*
X302036Y256596D01*
X301571Y254477D01*
X300415Y254477D01*
X300415Y253329D01*
X301510Y253329D01*
X301510Y247006D01*
X301517Y246746D01*
X301540Y246503D01*
X301577Y246276D01*
X301628Y246067D01*
X301695Y245874D01*
X301776Y245698D01*
X301872Y245539D01*
X301983Y245396D01*
X302109Y245271D01*
X302249Y245162D01*
X302404Y245069D01*
X302574Y244994D01*
X302759Y244935D01*
X302959Y244893D01*
X303173Y244868D01*
X303402Y244860D01*
X303807Y244873D01*
G37*
G36*
X288734Y195012D02*
X289161Y195048D01*
X289574Y195107D01*
X289975Y195190D01*
X290363Y195298D01*
X290737Y195429D01*
X291098Y195583D01*
X291447Y195762D01*
X291778Y195963D01*
X292091Y196185D01*
X292384Y196428D01*
X292657Y196691D01*
X292912Y196976D01*
X293146Y197282D01*
X293361Y197608D01*
X293557Y197956D01*
X293732Y198321D01*
X293883Y198702D01*
X294011Y199097D01*
X294116Y199507D01*
X294197Y199932D01*
X294255Y200373D01*
X294290Y200828D01*
X294302Y201297D01*
X294295Y201655D01*
X294275Y202001D01*
X294242Y202338D01*
X294195Y202664D01*
X294135Y202980D01*
X294062Y203285D01*
X293976Y203580D01*
X293876Y203865D01*
X293763Y204139D01*
X293636Y204403D01*
X293497Y204656D01*
X293344Y204900D01*
X293177Y205132D01*
X292998Y205355D01*
X292805Y205567D01*
X292598Y205769D01*
X292380Y205959D01*
X292150Y206137D01*
X291909Y206303D01*
X291657Y206456D01*
X291394Y206598D01*
X291119Y206727D01*
X290834Y206843D01*
X290537Y206948D01*
X290229Y207040D01*
X289909Y207120D01*
X289579Y207187D01*
X289237Y207243D01*
X288885Y207286D01*
X288521Y207316D01*
X288146Y207335D01*
X287759Y207341D01*
X283678Y207341D01*
X283678Y195000D01*
X288293Y195000D01*
X288734Y195012D01*
G37*
%LPC*%
G36*
X285351Y196340D02*
X285351Y206001D01*
X287724Y206001D01*
X288302Y205982D01*
X288845Y205925D01*
X289353Y205831D01*
X289825Y205700D01*
X290262Y205530D01*
X290665Y205323D01*
X291032Y205079D01*
X291363Y204796D01*
X291658Y204478D01*
X291913Y204126D01*
X292129Y203740D01*
X292306Y203320D01*
X292443Y202865D01*
X292542Y202377D01*
X292601Y201854D01*
X292620Y201297D01*
X292612Y200923D01*
X292586Y200561D01*
X292543Y200211D01*
X292482Y199874D01*
X292405Y199550D01*
X292310Y199238D01*
X292198Y198939D01*
X292068Y198652D01*
X291923Y198380D01*
X291763Y198125D01*
X291587Y197885D01*
X291397Y197663D01*
X291192Y197456D01*
X290972Y197266D01*
X290737Y197093D01*
X290487Y196936D01*
X290225Y196796D01*
X289952Y196675D01*
X289669Y196573D01*
X289376Y196489D01*
X289073Y196424D01*
X288759Y196377D01*
X288435Y196349D01*
X288101Y196340D01*
X285351Y196340D01*
G37*
%LPD*%
G36*
X272198Y203198D02*
X272154Y204661D01*
X272110Y205510D01*
X278714Y195000D01*
X280729Y195000D01*
X280729Y207341D01*
X279222Y207341D01*
X279222Y199248D01*
X279249Y198241D01*
X279327Y196760D01*
X272653Y207341D01*
X270709Y207341D01*
X270709Y195000D01*
X272198Y195000D01*
X272198Y203198D01*
G37*
G36*
X262833Y194833D02*
X263238Y194859D01*
X263635Y194902D01*
X264025Y194962D01*
X264407Y195039D01*
X264781Y195133D01*
X265149Y195244D01*
X265508Y195372D01*
X265857Y195516D01*
X266192Y195674D01*
X266513Y195846D01*
X266821Y196032D01*
X267114Y196233D01*
X267394Y196447D01*
X267660Y196676D01*
X267912Y196918D01*
X267912Y201175D01*
X262683Y201175D01*
X262683Y199773D01*
X266371Y199773D01*
X266371Y197549D01*
X266022Y197250D01*
X265623Y196984D01*
X265174Y196751D01*
X264676Y196550D01*
X264143Y196389D01*
X263589Y196274D01*
X263015Y196205D01*
X262421Y196182D01*
X261905Y196204D01*
X261418Y196267D01*
X260960Y196373D01*
X260531Y196521D01*
X260130Y196711D01*
X259759Y196944D01*
X259416Y197218D01*
X259101Y197536D01*
X258820Y197889D01*
X258576Y198274D01*
X258370Y198689D01*
X258201Y199135D01*
X258070Y199612D01*
X257976Y200120D01*
X257920Y200658D01*
X257901Y201227D01*
X257919Y201798D01*
X257972Y202335D01*
X258060Y202839D01*
X258184Y203311D01*
X258343Y203749D01*
X258537Y204155D01*
X258766Y204527D01*
X259031Y204867D01*
X259329Y205169D01*
X259659Y205432D01*
X260020Y205654D01*
X260413Y205835D01*
X260837Y205977D01*
X261292Y206078D01*
X261780Y206138D01*
X262298Y206158D01*
X262635Y206151D01*
X262957Y206128D01*
X263266Y206091D01*
X263560Y206038D01*
X263841Y205970D01*
X264107Y205887D01*
X264359Y205790D01*
X264597Y205677D01*
X264822Y205547D01*
X265034Y205400D01*
X265234Y205235D01*
X265422Y205053D01*
X265597Y204852D01*
X265759Y204634D01*
X265909Y204398D01*
X266047Y204144D01*
X267641Y204617D01*
X267459Y204985D01*
X267258Y205327D01*
X267039Y205643D01*
X266802Y205933D01*
X266547Y206197D01*
X266273Y206435D01*
X265981Y206647D01*
X265670Y206833D01*
X265338Y206995D01*
X264983Y207136D01*
X264603Y207254D01*
X264199Y207352D01*
X263771Y207427D01*
X263318Y207481D01*
X262842Y207514D01*
X262342Y207525D01*
X261982Y207518D01*
X261633Y207499D01*
X261294Y207467D01*
X260965Y207422D01*
X260646Y207364D01*
X260338Y207293D01*
X260040Y207210D01*
X259752Y207113D01*
X259474Y207004D01*
X259206Y206882D01*
X258948Y206746D01*
X258701Y206599D01*
X258464Y206438D01*
X258237Y206264D01*
X257814Y205878D01*
X257436Y205445D01*
X257266Y205213D01*
X257109Y204970D01*
X256964Y204716D01*
X256832Y204452D01*
X256712Y204177D01*
X256605Y203892D01*
X256511Y203596D01*
X256429Y203290D01*
X256360Y202972D01*
X256303Y202645D01*
X256259Y202306D01*
X256227Y201957D01*
X256208Y201598D01*
X256202Y201227D01*
X256214Y200745D01*
X256248Y200278D01*
X256306Y199828D01*
X256387Y199394D01*
X256491Y198975D01*
X256618Y198573D01*
X256769Y198186D01*
X256942Y197816D01*
X257138Y197464D01*
X257354Y197134D01*
X257590Y196824D01*
X257848Y196536D01*
X258126Y196269D01*
X258424Y196023D01*
X258744Y195799D01*
X259084Y195596D01*
X259442Y195415D01*
X259818Y195258D01*
X260210Y195126D01*
X260619Y195018D01*
X261044Y194933D01*
X261486Y194873D01*
X261945Y194837D01*
X262421Y194825D01*
X262833Y194833D01*
G37*
G36*
X367207Y442837D02*
X367655Y442874D01*
X368086Y442934D01*
X368503Y443020D01*
X368903Y443129D01*
X369288Y443263D01*
X369657Y443422D01*
X370011Y443604D01*
X370347Y443810D01*
X370663Y444036D01*
X370959Y444284D01*
X371234Y444552D01*
X371490Y444842D01*
X371725Y445153D01*
X371940Y445485D01*
X372135Y445838D01*
X372309Y446209D01*
X372459Y446595D01*
X372586Y446996D01*
X372690Y447412D01*
X372771Y447843D01*
X372829Y448290D01*
X372864Y448751D01*
X372875Y449227D01*
X372864Y449705D01*
X372830Y450167D01*
X372772Y450613D01*
X372692Y451043D01*
X372590Y451456D01*
X372464Y451853D01*
X372315Y452234D01*
X372144Y452599D01*
X371951Y452946D01*
X371737Y453271D01*
X371504Y453575D01*
X371249Y453857D01*
X370975Y454119D01*
X370680Y454359D01*
X370365Y454578D01*
X370029Y454776D01*
X369675Y454951D01*
X369306Y455103D01*
X368921Y455232D01*
X368520Y455338D01*
X368104Y455419D01*
X367672Y455478D01*
X367225Y455513D01*
X366762Y455525D01*
X366405Y455518D01*
X366059Y455499D01*
X365723Y455466D01*
X365396Y455420D01*
X365079Y455362D01*
X364773Y455290D01*
X364476Y455205D01*
X364189Y455108D01*
X363912Y454997D01*
X363645Y454873D01*
X363388Y454736D01*
X363141Y454586D01*
X362903Y454423D01*
X362676Y454247D01*
X362251Y453856D01*
X361871Y453419D01*
X361542Y452941D01*
X361397Y452687D01*
X361264Y452423D01*
X361144Y452149D01*
X361036Y451865D01*
X360941Y451570D01*
X360859Y451266D01*
X360789Y450951D01*
X360732Y450627D01*
X360688Y450292D01*
X360656Y449947D01*
X360637Y449592D01*
X360631Y449227D01*
X360642Y448749D01*
X360676Y448286D01*
X360733Y447837D01*
X360813Y447404D01*
X360915Y446987D01*
X361040Y446584D01*
X361187Y446197D01*
X361358Y445825D01*
X361550Y445471D01*
X361762Y445138D01*
X361995Y444828D01*
X362248Y444538D01*
X362521Y444270D01*
X362815Y444024D01*
X363130Y443799D01*
X363464Y443596D01*
X363817Y443415D01*
X364187Y443258D01*
X364572Y443126D01*
X364974Y443018D01*
X365392Y442933D01*
X365827Y442873D01*
X366277Y442837D01*
X366744Y442825D01*
X367207Y442837D01*
G37*
G36*
X402184Y443012D02*
X402611Y443048D01*
X403024Y443107D01*
X403425Y443190D01*
X403813Y443298D01*
X404187Y443429D01*
X404548Y443583D01*
X404897Y443762D01*
X405228Y443963D01*
X405541Y444185D01*
X405834Y444428D01*
X406107Y444691D01*
X406362Y444976D01*
X406596Y445282D01*
X406811Y445608D01*
X407007Y445956D01*
X407182Y446321D01*
X407333Y446702D01*
X407461Y447097D01*
X407566Y447507D01*
X407647Y447932D01*
X407705Y448373D01*
X407740Y448828D01*
X407752Y449297D01*
X407745Y449655D01*
X407725Y450001D01*
X407692Y450338D01*
X407645Y450664D01*
X407585Y450980D01*
X407512Y451285D01*
X407426Y451580D01*
X407326Y451865D01*
X407213Y452139D01*
X407086Y452403D01*
X406947Y452656D01*
X406794Y452900D01*
X406627Y453132D01*
X406448Y453355D01*
X406255Y453567D01*
X406048Y453769D01*
X405830Y453959D01*
X405600Y454137D01*
X405359Y454303D01*
X405107Y454456D01*
X404844Y454598D01*
X404569Y454727D01*
X404284Y454843D01*
X403987Y454948D01*
X403679Y455040D01*
X403359Y455120D01*
X403029Y455187D01*
X402687Y455243D01*
X402335Y455286D01*
X401971Y455316D01*
X401596Y455335D01*
X401209Y455341D01*
X397128Y455341D01*
X397128Y443000D01*
X401743Y443000D01*
X402184Y443012D01*
G37*
G36*
X321423Y442840D02*
X321887Y442885D01*
X322321Y442959D01*
X322725Y443063D01*
X323100Y443198D01*
X323446Y443362D01*
X323762Y443556D01*
X324048Y443780D01*
X324302Y444030D01*
X324523Y444304D01*
X324710Y444601D01*
X324862Y444923D01*
X324981Y445267D01*
X325066Y445635D01*
X325117Y446027D01*
X325134Y446442D01*
X325124Y446740D01*
X325093Y447025D01*
X325042Y447298D01*
X324970Y447558D01*
X324877Y447805D01*
X324764Y448039D01*
X324631Y448261D01*
X324477Y448470D01*
X324444Y448507D01*
X324305Y448663D01*
X324116Y448836D01*
X323911Y448991D01*
X323689Y449126D01*
X323451Y449241D01*
X323196Y449338D01*
X322925Y449415D01*
X322638Y449473D01*
X322638Y449508D01*
X322885Y449567D01*
X323119Y449645D01*
X323339Y449741D01*
X323546Y449856D01*
X323740Y449989D01*
X323903Y450125D01*
X323920Y450140D01*
X324087Y450309D01*
X324241Y450497D01*
X324378Y450699D01*
X324497Y450908D01*
X324598Y451127D01*
X324681Y451353D01*
X324745Y451589D01*
X324791Y451832D01*
X324818Y452085D01*
X324827Y452345D01*
X324811Y452702D01*
X324761Y453039D01*
X324679Y453357D01*
X324564Y453657D01*
X324415Y453938D01*
X324234Y454199D01*
X324019Y454442D01*
X323772Y454666D01*
X323496Y454868D01*
X323196Y455042D01*
X322873Y455189D01*
X322525Y455310D01*
X322153Y455404D01*
X321758Y455471D01*
X321338Y455511D01*
X320895Y455525D01*
X320462Y455511D01*
X320051Y455470D01*
X319663Y455402D01*
X319297Y455306D01*
X318955Y455183D01*
X318634Y455032D01*
X318337Y454854D01*
X318061Y454649D01*
X317814Y454422D01*
X317600Y454178D01*
X317418Y453917D01*
X317270Y453639D01*
X317154Y453345D01*
X317072Y453035D01*
X317023Y452707D01*
X317006Y452363D01*
X317015Y452102D01*
X317042Y451850D01*
X317088Y451606D01*
X317152Y451371D01*
X317234Y451144D01*
X317334Y450926D01*
X317452Y450716D01*
X317588Y450515D01*
X317741Y450326D01*
X317906Y450155D01*
X318085Y450001D01*
X318277Y449865D01*
X318482Y449745D01*
X318701Y449643D01*
X318933Y449558D01*
X319178Y449490D01*
X319178Y449455D01*
X318915Y449401D01*
X318664Y449327D01*
X318424Y449233D01*
X318197Y449118D01*
X317982Y448983D01*
X317779Y448828D01*
X317588Y448652D01*
X317409Y448457D01*
X317247Y448245D01*
X317106Y448021D01*
X316987Y447785D01*
X316890Y447537D01*
X316814Y447277D01*
X316760Y447005D01*
X316728Y446721D01*
X316717Y446425D01*
X316734Y446006D01*
X316787Y445611D01*
X316874Y445241D01*
X316996Y444896D01*
X317153Y444576D01*
X317345Y444280D01*
X317572Y444009D01*
X317834Y443762D01*
X318126Y443542D01*
X318446Y443352D01*
X318793Y443191D01*
X319166Y443059D01*
X319567Y442957D01*
X319994Y442883D01*
X320448Y442840D01*
X320930Y442825D01*
X321423Y442840D01*
G37*
%LPC*%
G36*
X366240Y444204D02*
X365763Y444268D01*
X365315Y444374D01*
X364895Y444523D01*
X364504Y444714D01*
X364141Y444949D01*
X363806Y445225D01*
X363499Y445544D01*
X363225Y445900D01*
X362988Y446285D01*
X362787Y446701D01*
X362622Y447146D01*
X362494Y447621D01*
X362403Y448127D01*
X362348Y448662D01*
X362330Y449227D01*
X362348Y449796D01*
X362402Y450331D01*
X362493Y450835D01*
X362619Y451305D01*
X362782Y451743D01*
X362980Y452149D01*
X363215Y452522D01*
X363486Y452862D01*
X363790Y453166D01*
X364124Y453429D01*
X364489Y453652D01*
X364883Y453834D01*
X365308Y453976D01*
X365762Y454077D01*
X366247Y454138D01*
X366762Y454158D01*
X367272Y454138D01*
X367753Y454076D01*
X368205Y453974D01*
X368626Y453830D01*
X369018Y453645D01*
X369380Y453419D01*
X369713Y453153D01*
X370016Y452845D01*
X370286Y452501D01*
X370519Y452126D01*
X370717Y451720D01*
X370879Y451283D01*
X371005Y450816D01*
X371095Y450317D01*
X371149Y449788D01*
X371167Y449227D01*
X371149Y448642D01*
X371096Y448091D01*
X371007Y447574D01*
X370882Y447091D01*
X370721Y446643D01*
X370524Y446228D01*
X370292Y445847D01*
X370024Y445501D01*
X369723Y445192D01*
X369391Y444924D01*
X369027Y444697D01*
X368633Y444512D01*
X368207Y444368D01*
X367751Y444265D01*
X367263Y444203D01*
X366744Y444182D01*
X366240Y444204D01*
G37*
%LPD*%
G36*
X340531Y442843D02*
X340960Y442895D01*
X341363Y442984D01*
X341742Y443107D01*
X342095Y443266D01*
X342423Y443460D01*
X342725Y443690D01*
X343003Y443955D01*
X343251Y444250D01*
X343467Y444571D01*
X343649Y444918D01*
X343798Y445290D01*
X343914Y445689D01*
X343996Y446113D01*
X344046Y446562D01*
X344063Y447038D01*
X344047Y447477D01*
X344000Y447894D01*
X343922Y448287D01*
X343812Y448658D01*
X343671Y449006D01*
X343499Y449330D01*
X343295Y449632D01*
X343060Y449910D01*
X342798Y450161D01*
X342514Y450378D01*
X342209Y450562D01*
X341881Y450712D01*
X341531Y450829D01*
X341159Y450912D01*
X340765Y450962D01*
X340349Y450979D01*
X340101Y450973D01*
X339860Y450953D01*
X339626Y450921D01*
X339399Y450875D01*
X338966Y450745D01*
X338562Y450563D01*
X338194Y450331D01*
X337870Y450052D01*
X337590Y449725D01*
X337354Y449350D01*
X337365Y449928D01*
X337400Y450471D01*
X337458Y450978D01*
X337539Y451451D01*
X337643Y451888D01*
X337770Y452290D01*
X337920Y452657D01*
X338094Y452989D01*
X338288Y453284D01*
X338502Y453539D01*
X338734Y453755D01*
X338986Y453932D01*
X339257Y454069D01*
X339546Y454167D01*
X339855Y454226D01*
X340183Y454246D01*
X340557Y454222D01*
X340898Y454152D01*
X341203Y454034D01*
X341475Y453869D01*
X341711Y453658D01*
X341914Y453399D01*
X342081Y453093D01*
X342215Y452740D01*
X343721Y453011D01*
X343622Y453315D01*
X343507Y453600D01*
X343376Y453865D01*
X343228Y454111D01*
X343065Y454337D01*
X342885Y454543D01*
X342689Y454729D01*
X342477Y454896D01*
X342249Y455044D01*
X342005Y455171D01*
X341745Y455279D01*
X341468Y455368D01*
X341175Y455436D01*
X340866Y455485D01*
X340541Y455515D01*
X340200Y455525D01*
X339939Y455518D01*
X339685Y455498D01*
X339440Y455464D01*
X339201Y455417D01*
X338970Y455357D01*
X338747Y455283D01*
X338324Y455096D01*
X337931Y454854D01*
X337568Y454559D01*
X337235Y454210D01*
X336933Y453808D01*
X336664Y453356D01*
X336431Y452857D01*
X336234Y452311D01*
X336073Y451719D01*
X335947Y451081D01*
X335858Y450395D01*
X335804Y449664D01*
X335786Y448886D01*
X335803Y448168D01*
X335855Y447494D01*
X335941Y446864D01*
X336062Y446278D01*
X336217Y445736D01*
X336407Y445238D01*
X336631Y444785D01*
X336889Y444375D01*
X337181Y444012D01*
X337503Y443697D01*
X337855Y443430D01*
X338238Y443212D01*
X338652Y443043D01*
X339097Y442922D01*
X339572Y442849D01*
X339821Y442831D01*
X340078Y442825D01*
X340531Y442843D01*
G37*
%LPC*%
G36*
X398801Y444340D02*
X398801Y454001D01*
X401174Y454001D01*
X401752Y453982D01*
X402295Y453925D01*
X402803Y453831D01*
X403275Y453700D01*
X403712Y453530D01*
X404115Y453323D01*
X404482Y453079D01*
X404813Y452796D01*
X405108Y452478D01*
X405363Y452126D01*
X405579Y451740D01*
X405756Y451320D01*
X405893Y450865D01*
X405992Y450377D01*
X406051Y449854D01*
X406070Y449297D01*
X406062Y448923D01*
X406036Y448561D01*
X405993Y448211D01*
X405932Y447874D01*
X405855Y447550D01*
X405760Y447238D01*
X405648Y446939D01*
X405518Y446652D01*
X405373Y446380D01*
X405213Y446125D01*
X405037Y445885D01*
X404847Y445663D01*
X404642Y445456D01*
X404422Y445266D01*
X404187Y445093D01*
X403937Y444936D01*
X403675Y444796D01*
X403402Y444675D01*
X403119Y444573D01*
X402826Y444489D01*
X402523Y444424D01*
X402209Y444377D01*
X401885Y444349D01*
X401551Y444340D01*
X398801Y444340D01*
G37*
%LPD*%
G36*
X352560Y445794D02*
X354294Y445794D01*
X354294Y447038D01*
X352560Y447038D01*
X352560Y455341D01*
X350905Y455341D01*
X345255Y447020D01*
X345255Y445794D01*
X351071Y445794D01*
X351071Y443000D01*
X352560Y443000D01*
X352560Y445794D01*
G37*
G36*
X394881Y444366D02*
X386832Y444366D01*
X386832Y448667D01*
X393996Y448667D01*
X393996Y450016D01*
X386832Y450016D01*
X386832Y453974D01*
X394522Y453974D01*
X394522Y455341D01*
X385159Y455341D01*
X385159Y443000D01*
X394881Y443000D01*
X394881Y444366D01*
G37*
G36*
X315043Y444340D02*
X308605Y444340D01*
X308757Y444650D01*
X308951Y444965D01*
X309186Y445287D01*
X309463Y445614D01*
X309787Y445955D01*
X310162Y446316D01*
X310588Y446697D01*
X311066Y447099D01*
X311908Y447795D01*
X312601Y448393D01*
X313147Y448894D01*
X313545Y449297D01*
X313849Y449652D01*
X314113Y450007D01*
X314337Y450362D01*
X314521Y450716D01*
X314665Y451072D01*
X314768Y451428D01*
X314829Y451785D01*
X314850Y452144D01*
X314834Y452537D01*
X314787Y452908D01*
X314709Y453255D01*
X314599Y453579D01*
X314458Y453880D01*
X314286Y454158D01*
X314082Y454413D01*
X313847Y454644D01*
X313583Y454851D01*
X313292Y455030D01*
X312974Y455181D01*
X312629Y455305D01*
X312256Y455401D01*
X311858Y455470D01*
X311432Y455511D01*
X310979Y455525D01*
X310563Y455511D01*
X310168Y455470D01*
X309791Y455402D01*
X309434Y455306D01*
X309096Y455183D01*
X308777Y455032D01*
X308478Y454854D01*
X308198Y454649D01*
X307942Y454420D01*
X307714Y454173D01*
X307514Y453907D01*
X307343Y453622D01*
X307200Y453318D01*
X307085Y452995D01*
X306999Y452653D01*
X306941Y452293D01*
X308553Y452144D01*
X308589Y452384D01*
X308643Y452611D01*
X308714Y452824D01*
X308801Y453023D01*
X308905Y453208D01*
X309026Y453380D01*
X309164Y453537D01*
X309319Y453681D01*
X309488Y453809D01*
X309667Y453921D01*
X309858Y454015D01*
X310060Y454092D01*
X310273Y454151D01*
X310497Y454194D01*
X310732Y454220D01*
X310979Y454228D01*
X311236Y454220D01*
X311480Y454193D01*
X311708Y454150D01*
X311922Y454088D01*
X312122Y454009D01*
X312307Y453913D01*
X312478Y453799D01*
X312634Y453668D01*
X312774Y453521D01*
X312895Y453359D01*
X312997Y453183D01*
X313081Y452993D01*
X313146Y452789D01*
X313192Y452571D01*
X313220Y452338D01*
X313230Y452091D01*
X313208Y451725D01*
X313143Y451378D01*
X313035Y451050D01*
X312884Y450743D01*
X312697Y450448D01*
X312484Y450160D01*
X312244Y449879D01*
X311977Y449604D01*
X311383Y449061D01*
X310720Y448518D01*
X310021Y447952D01*
X309315Y447340D01*
X308964Y447013D01*
X308621Y446668D01*
X308287Y446304D01*
X307961Y445921D01*
X307652Y445514D01*
X307367Y445077D01*
X307107Y444610D01*
X306871Y444112D01*
X306871Y443000D01*
X315043Y443000D01*
X315043Y444340D01*
G37*
G36*
X305100Y444340D02*
X302096Y444340D01*
X302096Y455341D01*
X300642Y455341D01*
X297725Y453335D01*
X297725Y451846D01*
X300511Y453834D01*
X300511Y444340D01*
X297366Y444340D01*
X297366Y443000D01*
X305100Y443000D01*
X305100Y444340D01*
G37*
G36*
X330373Y446889D02*
X332922Y443000D01*
X334682Y443000D01*
X331266Y447887D01*
X334481Y452477D01*
X332720Y452477D01*
X330373Y448789D01*
X328008Y452477D01*
X326265Y452477D01*
X329480Y447870D01*
X326108Y443000D01*
X327807Y443000D01*
X330373Y446889D01*
G37*
G36*
X383099Y444366D02*
X376863Y444366D01*
X376863Y455341D01*
X375190Y455341D01*
X375190Y443000D01*
X383099Y443000D01*
X383099Y444366D01*
G37*
%LPC*%
G36*
X339755Y444109D02*
X339498Y444152D01*
X339253Y444223D01*
X339021Y444323D01*
X338801Y444451D01*
X338594Y444607D01*
X338399Y444792D01*
X338216Y445006D01*
X338051Y445242D01*
X337908Y445493D01*
X337787Y445762D01*
X337688Y446046D01*
X337610Y446346D01*
X337555Y446663D01*
X337522Y446995D01*
X337511Y447344D01*
X337522Y447619D01*
X337554Y447879D01*
X337607Y448123D01*
X337681Y448353D01*
X337776Y448567D01*
X337893Y448766D01*
X338031Y448949D01*
X338190Y449118D01*
X338366Y449269D01*
X338556Y449399D01*
X338759Y449510D01*
X338975Y449601D01*
X339205Y449671D01*
X339447Y449721D01*
X339703Y449752D01*
X339972Y449762D01*
X340258Y449750D01*
X340527Y449716D01*
X340780Y449659D01*
X341017Y449580D01*
X341238Y449478D01*
X341442Y449353D01*
X341631Y449205D01*
X341803Y449035D01*
X341957Y448843D01*
X342090Y448633D01*
X342203Y448403D01*
X342296Y448154D01*
X342368Y447886D01*
X342419Y447599D01*
X342450Y447293D01*
X342460Y446968D01*
X342450Y446642D01*
X342419Y446333D01*
X342369Y446043D01*
X342298Y445771D01*
X342207Y445517D01*
X342095Y445280D01*
X341964Y445062D01*
X341812Y444861D01*
X341642Y444682D01*
X341457Y444526D01*
X341257Y444394D01*
X341041Y444286D01*
X340810Y444203D01*
X340564Y444143D01*
X340302Y444107D01*
X340025Y444095D01*
X339755Y444109D01*
G37*
G36*
X320632Y444017D02*
X320338Y444047D01*
X320063Y444097D01*
X319809Y444167D01*
X319576Y444256D01*
X319362Y444366D01*
X319169Y444495D01*
X318996Y444644D01*
X318844Y444814D01*
X318712Y445003D01*
X318600Y445212D01*
X318509Y445441D01*
X318438Y445690D01*
X318387Y445959D01*
X318356Y446247D01*
X318346Y446556D01*
X318357Y446822D01*
X318388Y447074D01*
X318441Y447311D01*
X318515Y447534D01*
X318610Y447741D01*
X318725Y447935D01*
X318862Y448113D01*
X319021Y448277D01*
X319197Y448424D01*
X319391Y448551D01*
X319600Y448659D01*
X319826Y448747D01*
X320069Y448815D01*
X320328Y448864D01*
X320603Y448893D01*
X320895Y448903D01*
X321195Y448894D01*
X321478Y448867D01*
X321743Y448821D01*
X321992Y448758D01*
X322223Y448676D01*
X322437Y448576D01*
X322634Y448457D01*
X322813Y448321D01*
X322973Y448166D01*
X323112Y447994D01*
X323229Y447805D01*
X323325Y447597D01*
X323400Y447372D01*
X323453Y447129D01*
X323485Y446869D01*
X323496Y446591D01*
X323486Y446265D01*
X323457Y445962D01*
X323407Y445682D01*
X323338Y445425D01*
X323250Y445191D01*
X323141Y444979D01*
X323013Y444791D01*
X322866Y444625D01*
X322698Y444480D01*
X322509Y444355D01*
X322300Y444248D01*
X322071Y444162D01*
X321821Y444094D01*
X321550Y444046D01*
X321259Y444017D01*
X320947Y444007D01*
X320632Y444017D01*
G37*
G36*
X320646Y450094D02*
X320396Y450120D01*
X320161Y450164D01*
X319941Y450225D01*
X319737Y450303D01*
X319548Y450399D01*
X319375Y450511D01*
X319218Y450642D01*
X319077Y450789D01*
X318955Y450951D01*
X318852Y451130D01*
X318768Y451324D01*
X318702Y451534D01*
X318655Y451759D01*
X318627Y452001D01*
X318618Y452258D01*
X318627Y452510D01*
X318654Y452747D01*
X318700Y452967D01*
X318763Y453171D01*
X318845Y453359D01*
X318945Y453531D01*
X319064Y453686D01*
X319200Y453826D01*
X319354Y453949D01*
X319524Y454055D01*
X319711Y454146D01*
X319915Y454220D01*
X320135Y454277D01*
X320372Y454318D01*
X320625Y454343D01*
X320895Y454351D01*
X321173Y454343D01*
X321433Y454318D01*
X321675Y454277D01*
X321899Y454220D01*
X322105Y454147D01*
X322293Y454057D01*
X322464Y453950D01*
X322616Y453828D01*
X322750Y453689D01*
X322867Y453533D01*
X322965Y453362D01*
X323046Y453174D01*
X323109Y452969D01*
X323154Y452748D01*
X323181Y452511D01*
X323190Y452258D01*
X323180Y451981D01*
X323153Y451724D01*
X323108Y451487D01*
X323044Y451269D01*
X322962Y451072D01*
X322862Y450894D01*
X322744Y450736D01*
X322607Y450598D01*
X322453Y450478D01*
X322283Y450374D01*
X322096Y450286D01*
X321892Y450214D01*
X321672Y450158D01*
X321435Y450118D01*
X321182Y450094D01*
X320912Y450086D01*
X320646Y450094D01*
G37*
G36*
X346709Y447038D02*
X346849Y447213D01*
X347322Y447861D01*
X350484Y452521D01*
X350826Y453099D01*
X351071Y453563D01*
X351071Y447038D01*
X346709Y447038D01*
G37*
%LPD*%
G36*
X1169520Y547228D02*
X1164396Y547228D01*
X1164396Y551073D01*
X1169520Y554278D01*
X1169520Y556205D01*
X1166467Y554193D01*
X1164204Y552702D01*
X1164131Y553045D01*
X1164038Y553369D01*
X1163922Y553674D01*
X1163785Y553960D01*
X1163693Y554116D01*
X1163627Y554227D01*
X1163447Y554475D01*
X1163245Y554704D01*
X1163021Y554913D01*
X1162780Y555101D01*
X1162525Y555264D01*
X1162257Y555402D01*
X1161975Y555514D01*
X1161679Y555602D01*
X1161369Y555665D01*
X1161046Y555702D01*
X1160709Y555715D01*
X1160304Y555697D01*
X1159923Y555644D01*
X1159564Y555555D01*
X1159228Y555431D01*
X1158914Y555272D01*
X1158624Y555077D01*
X1158357Y554846D01*
X1158112Y554581D01*
X1157893Y554282D01*
X1157704Y553954D01*
X1157544Y553596D01*
X1157412Y553209D01*
X1157310Y552792D01*
X1157238Y552345D01*
X1157194Y551868D01*
X1157179Y551362D01*
X1157179Y545555D01*
X1169520Y545555D01*
X1169520Y547228D01*
G37*
G36*
X1169520Y560197D02*
X1164712Y560197D01*
X1164712Y563823D01*
X1164695Y564300D01*
X1164647Y564752D01*
X1164566Y565179D01*
X1164453Y565580D01*
X1164308Y565955D01*
X1164130Y566305D01*
X1163920Y566629D01*
X1163678Y566928D01*
X1163408Y567195D01*
X1163116Y567428D01*
X1162802Y567624D01*
X1162465Y567785D01*
X1162106Y567910D01*
X1161724Y567999D01*
X1161320Y568053D01*
X1160893Y568070D01*
X1160463Y568053D01*
X1160058Y567999D01*
X1159678Y567910D01*
X1159323Y567786D01*
X1158993Y567626D01*
X1158687Y567430D01*
X1158407Y567199D01*
X1158151Y566932D01*
X1157924Y566633D01*
X1157726Y566304D01*
X1157559Y565946D01*
X1157422Y565559D01*
X1157316Y565143D01*
X1157240Y564697D01*
X1157194Y564222D01*
X1157179Y563718D01*
X1157179Y558524D01*
X1169520Y558524D01*
X1169520Y560197D01*
G37*
G36*
X1169520Y582134D02*
X1164712Y582134D01*
X1164712Y585760D01*
X1164695Y586238D01*
X1164647Y586690D01*
X1164566Y587116D01*
X1164453Y587517D01*
X1164308Y587893D01*
X1164130Y588242D01*
X1163920Y588566D01*
X1163678Y588865D01*
X1163408Y589133D01*
X1163116Y589365D01*
X1162802Y589562D01*
X1162465Y589722D01*
X1162106Y589847D01*
X1161724Y589937D01*
X1161320Y589990D01*
X1160893Y590008D01*
X1160463Y589990D01*
X1160058Y589937D01*
X1159678Y589848D01*
X1159323Y589723D01*
X1158993Y589563D01*
X1158687Y589368D01*
X1158407Y589136D01*
X1158151Y588869D01*
X1157924Y588570D01*
X1157726Y588242D01*
X1157559Y587884D01*
X1157422Y587496D01*
X1157316Y587080D01*
X1157240Y586634D01*
X1157194Y586159D01*
X1157179Y585655D01*
X1157179Y580461D01*
X1169520Y580461D01*
X1169520Y582134D01*
G37*
G36*
X1165353Y604697D02*
X1165898Y604747D01*
X1166408Y604830D01*
X1166883Y604945D01*
X1167322Y605094D01*
X1167726Y605277D01*
X1168096Y605492D01*
X1168430Y605740D01*
X1168726Y606021D01*
X1168983Y606334D01*
X1169201Y606678D01*
X1169379Y607054D01*
X1169517Y607462D01*
X1169616Y607901D01*
X1169675Y608373D01*
X1169695Y608876D01*
X1169676Y609381D01*
X1169619Y609856D01*
X1169524Y610300D01*
X1169391Y610713D01*
X1169220Y611095D01*
X1169010Y611446D01*
X1168763Y611766D01*
X1168478Y612055D01*
X1168154Y612312D01*
X1167790Y612534D01*
X1167386Y612722D01*
X1166943Y612876D01*
X1166460Y612996D01*
X1165937Y613082D01*
X1165375Y613133D01*
X1164773Y613150D01*
X1164165Y613134D01*
X1163598Y613086D01*
X1163073Y613006D01*
X1162589Y612894D01*
X1162146Y612750D01*
X1161744Y612574D01*
X1161383Y612365D01*
X1161064Y612125D01*
X1160783Y611851D01*
X1160541Y611541D01*
X1160335Y611195D01*
X1160167Y610814D01*
X1160036Y610396D01*
X1159943Y609943D01*
X1159887Y609453D01*
X1159868Y608928D01*
X1159887Y608414D01*
X1159945Y607933D01*
X1160041Y607485D01*
X1160175Y607070D01*
X1160347Y606688D01*
X1160558Y606340D01*
X1160807Y606025D01*
X1161094Y605742D01*
X1161420Y605494D01*
X1161784Y605278D01*
X1162186Y605095D01*
X1162627Y604946D01*
X1163106Y604830D01*
X1163623Y604747D01*
X1164179Y604697D01*
X1164773Y604680D01*
X1165353Y604697D01*
G37*
%LPC*%
G36*
X1164307Y606345D02*
X1163873Y606374D01*
X1163471Y606423D01*
X1163101Y606490D01*
X1162763Y606577D01*
X1162457Y606683D01*
X1162182Y606809D01*
X1161940Y606953D01*
X1161727Y607120D01*
X1161543Y607310D01*
X1161387Y607524D01*
X1161260Y607762D01*
X1161160Y608025D01*
X1161090Y608311D01*
X1161047Y608621D01*
X1161033Y608955D01*
X1161047Y609286D01*
X1161089Y609593D01*
X1161158Y609875D01*
X1161255Y610132D01*
X1161380Y610364D01*
X1161533Y610571D01*
X1161714Y610754D01*
X1161922Y610912D01*
X1162161Y611049D01*
X1162434Y611167D01*
X1162740Y611267D01*
X1163079Y611349D01*
X1163452Y611413D01*
X1163859Y611458D01*
X1164299Y611486D01*
X1164773Y611495D01*
X1165241Y611485D01*
X1165677Y611457D01*
X1166081Y611409D01*
X1166452Y611342D01*
X1166792Y611257D01*
X1167100Y611152D01*
X1167376Y611029D01*
X1167619Y610886D01*
X1167833Y610721D01*
X1168018Y610531D01*
X1168174Y610315D01*
X1168303Y610075D01*
X1168402Y609809D01*
X1168473Y609517D01*
X1168516Y609200D01*
X1168530Y608858D01*
X1168516Y608543D01*
X1168471Y608249D01*
X1168398Y607977D01*
X1168295Y607727D01*
X1168163Y607499D01*
X1168001Y607292D01*
X1167809Y607108D01*
X1167589Y606945D01*
X1167339Y606802D01*
X1167060Y606678D01*
X1166751Y606574D01*
X1166414Y606488D01*
X1166047Y606421D01*
X1165652Y606374D01*
X1165227Y606345D01*
X1164773Y606336D01*
X1164307Y606345D01*
G37*
%LPD*%
G36*
X1165357Y595737D02*
X1165905Y595786D01*
X1166417Y595868D01*
X1166894Y595982D01*
X1167334Y596129D01*
X1167738Y596309D01*
X1168106Y596522D01*
X1168438Y596767D01*
X1168733Y597044D01*
X1168988Y597349D01*
X1169204Y597685D01*
X1169381Y598049D01*
X1169518Y598443D01*
X1169617Y598867D01*
X1169676Y599320D01*
X1169695Y599802D01*
X1169682Y600170D01*
X1169644Y600522D01*
X1169581Y600858D01*
X1169492Y601177D01*
X1169377Y601480D01*
X1169237Y601766D01*
X1169072Y602036D01*
X1168881Y602289D01*
X1168668Y602522D01*
X1168439Y602730D01*
X1168192Y602913D01*
X1167928Y603071D01*
X1167647Y603204D01*
X1167348Y603313D01*
X1167033Y603396D01*
X1166700Y603454D01*
X1166595Y601860D01*
X1166823Y601821D01*
X1167037Y601767D01*
X1167235Y601701D01*
X1167418Y601620D01*
X1167585Y601527D01*
X1167738Y601419D01*
X1167875Y601298D01*
X1167996Y601164D01*
X1168103Y601018D01*
X1168195Y600864D01*
X1168274Y600701D01*
X1168338Y600530D01*
X1168387Y600350D01*
X1168423Y600161D01*
X1168444Y599964D01*
X1168451Y599758D01*
X1168437Y599468D01*
X1168395Y599196D01*
X1168323Y598943D01*
X1168224Y598709D01*
X1168096Y598494D01*
X1167939Y598298D01*
X1167754Y598121D01*
X1167541Y597963D01*
X1167298Y597823D01*
X1167024Y597702D01*
X1166719Y597600D01*
X1166384Y597516D01*
X1166019Y597451D01*
X1165622Y597404D01*
X1165195Y597376D01*
X1164738Y597367D01*
X1164263Y597376D01*
X1163824Y597402D01*
X1163420Y597446D01*
X1163052Y597507D01*
X1162719Y597586D01*
X1162422Y597682D01*
X1162161Y597796D01*
X1161935Y597928D01*
X1161740Y598079D01*
X1161571Y598251D01*
X1161428Y598445D01*
X1161311Y598661D01*
X1161220Y598899D01*
X1161155Y599158D01*
X1161116Y599438D01*
X1161103Y599741D01*
X1161110Y599964D01*
X1161132Y600174D01*
X1161168Y600371D01*
X1161219Y600555D01*
X1161284Y600726D01*
X1161364Y600884D01*
X1161458Y601028D01*
X1161567Y601160D01*
X1161820Y601386D01*
X1162112Y601565D01*
X1162446Y601697D01*
X1162820Y601781D01*
X1162697Y603402D01*
X1162375Y603329D01*
X1162071Y603235D01*
X1161785Y603117D01*
X1161517Y602978D01*
X1161266Y602816D01*
X1161034Y602632D01*
X1160819Y602426D01*
X1160621Y602197D01*
X1160445Y601950D01*
X1160292Y601687D01*
X1160162Y601409D01*
X1160056Y601115D01*
X1159974Y600805D01*
X1159915Y600480D01*
X1159880Y600140D01*
X1159868Y599784D01*
X1159888Y599308D01*
X1159947Y598860D01*
X1160045Y598441D01*
X1160182Y598050D01*
X1160359Y597688D01*
X1160575Y597354D01*
X1160830Y597049D01*
X1161125Y596772D01*
X1161457Y596525D01*
X1161824Y596312D01*
X1162227Y596131D01*
X1162665Y595983D01*
X1163139Y595868D01*
X1163648Y595786D01*
X1164193Y595737D01*
X1164773Y595720D01*
X1165357Y595737D01*
G37*
%LPC*%
G36*
X1158519Y547228D02*
X1158519Y551195D01*
X1158528Y551529D01*
X1158555Y551843D01*
X1158599Y552136D01*
X1158661Y552410D01*
X1158740Y552663D01*
X1158837Y552896D01*
X1158952Y553109D01*
X1159084Y553302D01*
X1159233Y553473D01*
X1159399Y553622D01*
X1159580Y553748D01*
X1159777Y553850D01*
X1159991Y553930D01*
X1160220Y553987D01*
X1160465Y554022D01*
X1160726Y554033D01*
X1160997Y554022D01*
X1161252Y553988D01*
X1161491Y553932D01*
X1161715Y553853D01*
X1161924Y553751D01*
X1162117Y553627D01*
X1162294Y553480D01*
X1162456Y553311D01*
X1162601Y553121D01*
X1162726Y552912D01*
X1162833Y552684D01*
X1162919Y552438D01*
X1162987Y552173D01*
X1163035Y551889D01*
X1163064Y551587D01*
X1163074Y551266D01*
X1163074Y547228D01*
X1158519Y547228D01*
G37*
G36*
X1158519Y560197D02*
X1158519Y563516D01*
X1158529Y563864D01*
X1158557Y564189D01*
X1158603Y564492D01*
X1158669Y564773D01*
X1158753Y565031D01*
X1158856Y565267D01*
X1158977Y565480D01*
X1159117Y565671D01*
X1159276Y565839D01*
X1159453Y565985D01*
X1159649Y566108D01*
X1159864Y566209D01*
X1160098Y566288D01*
X1160350Y566344D01*
X1160621Y566378D01*
X1160910Y566389D01*
X1161211Y566378D01*
X1161491Y566345D01*
X1161753Y566290D01*
X1161995Y566214D01*
X1162217Y566115D01*
X1162421Y565995D01*
X1162605Y565852D01*
X1162769Y565688D01*
X1162915Y565502D01*
X1163040Y565294D01*
X1163147Y565064D01*
X1163234Y564812D01*
X1163302Y564539D01*
X1163350Y564243D01*
X1163379Y563926D01*
X1163389Y563586D01*
X1163389Y560197D01*
X1158519Y560197D01*
G37*
G36*
X1158519Y582134D02*
X1158519Y585454D01*
X1158529Y585801D01*
X1158557Y586127D01*
X1158603Y586430D01*
X1158669Y586710D01*
X1158753Y586969D01*
X1158856Y587204D01*
X1158977Y587417D01*
X1159117Y587608D01*
X1159276Y587776D01*
X1159453Y587922D01*
X1159649Y588046D01*
X1159864Y588147D01*
X1160098Y588225D01*
X1160350Y588281D01*
X1160621Y588315D01*
X1160910Y588326D01*
X1161211Y588315D01*
X1161491Y588283D01*
X1161753Y588228D01*
X1161995Y588151D01*
X1162217Y588053D01*
X1162421Y587932D01*
X1162605Y587790D01*
X1162769Y587626D01*
X1162915Y587440D01*
X1163040Y587232D01*
X1163147Y587002D01*
X1163234Y586750D01*
X1163302Y586476D01*
X1163350Y586181D01*
X1163379Y585863D01*
X1163389Y585524D01*
X1163389Y582134D01*
X1158519Y582134D01*
G37*
%LPD*%
G36*
X1169520Y593735D02*
X1160043Y593735D01*
X1160043Y592158D01*
X1169520Y592158D01*
X1169520Y593735D01*
G37*
G36*
X1173085Y579198D02*
X1171946Y579198D01*
X1171946Y568749D01*
X1173085Y568749D01*
X1173085Y579198D01*
G37*
G36*
X1158029Y593735D02*
X1156522Y593735D01*
X1156522Y592158D01*
X1158029Y592158D01*
X1158029Y593735D01*
G37*
G36*
X1296520Y570534D02*
X1296506Y571053D01*
X1296463Y571544D01*
X1296391Y572005D01*
X1296291Y572436D01*
X1296163Y572839D01*
X1296005Y573212D01*
X1295819Y573556D01*
X1295605Y573871D01*
X1295365Y574152D01*
X1295101Y574396D01*
X1294815Y574602D01*
X1294507Y574771D01*
X1294175Y574902D01*
X1293820Y574996D01*
X1293443Y575052D01*
X1293043Y575070D01*
X1292741Y575058D01*
X1292452Y575021D01*
X1292176Y574958D01*
X1291914Y574871D01*
X1291665Y574759D01*
X1291429Y574622D01*
X1291207Y574460D01*
X1290998Y574273D01*
X1290894Y574160D01*
X1290805Y574064D01*
X1290632Y573833D01*
X1290479Y573581D01*
X1290346Y573308D01*
X1290233Y573014D01*
X1290140Y572699D01*
X1290066Y572362D01*
X1290012Y572005D01*
X1289941Y572277D01*
X1289855Y572534D01*
X1289753Y572774D01*
X1289636Y572999D01*
X1289503Y573208D01*
X1289356Y573401D01*
X1289284Y573479D01*
X1289192Y573578D01*
X1289014Y573739D01*
X1288822Y573883D01*
X1288620Y574007D01*
X1288406Y574113D01*
X1288182Y574199D01*
X1287947Y574266D01*
X1287700Y574314D01*
X1287443Y574343D01*
X1287175Y574352D01*
X1286812Y574335D01*
X1286473Y574284D01*
X1286157Y574200D01*
X1285864Y574081D01*
X1285595Y573928D01*
X1285349Y573741D01*
X1285127Y573521D01*
X1284928Y573266D01*
X1284753Y572978D01*
X1284600Y572655D01*
X1284472Y572299D01*
X1284366Y571909D01*
X1284285Y571484D01*
X1284226Y571026D01*
X1284191Y570534D01*
X1284179Y570008D01*
X1284179Y565524D01*
X1296520Y565524D01*
X1296520Y570534D01*
G37*
G36*
X1287308Y582204D02*
X1287733Y582220D01*
X1289067Y582233D01*
X1296520Y582233D01*
X1296520Y583801D01*
X1291028Y583801D01*
X1290688Y583810D01*
X1290367Y583838D01*
X1290066Y583884D01*
X1289785Y583948D01*
X1289523Y584030D01*
X1289281Y584131D01*
X1289059Y584251D01*
X1288856Y584388D01*
X1288676Y584541D01*
X1288519Y584708D01*
X1288387Y584887D01*
X1288278Y585080D01*
X1288194Y585286D01*
X1288134Y585505D01*
X1288098Y585737D01*
X1288086Y585982D01*
X1288094Y586218D01*
X1288118Y586435D01*
X1288159Y586633D01*
X1288217Y586812D01*
X1288291Y586972D01*
X1288381Y587114D01*
X1288488Y587236D01*
X1288611Y587340D01*
X1288756Y587428D01*
X1288927Y587504D01*
X1289125Y587569D01*
X1289349Y587622D01*
X1289600Y587663D01*
X1289877Y587693D01*
X1290181Y587710D01*
X1290512Y587716D01*
X1296520Y587716D01*
X1296520Y589275D01*
X1291028Y589275D01*
X1290686Y589284D01*
X1290364Y589311D01*
X1290061Y589356D01*
X1289779Y589419D01*
X1289517Y589499D01*
X1289275Y589598D01*
X1289054Y589715D01*
X1288852Y589849D01*
X1288672Y590000D01*
X1288517Y590165D01*
X1288385Y590344D01*
X1288277Y590538D01*
X1288193Y590746D01*
X1288133Y590968D01*
X1288098Y591205D01*
X1288086Y591456D01*
X1288094Y591692D01*
X1288118Y591909D01*
X1288159Y592107D01*
X1288217Y592286D01*
X1288291Y592446D01*
X1288381Y592588D01*
X1288488Y592710D01*
X1288611Y592814D01*
X1288756Y592902D01*
X1288927Y592979D01*
X1289125Y593043D01*
X1289349Y593096D01*
X1289600Y593137D01*
X1289877Y593167D01*
X1290181Y593185D01*
X1290512Y593190D01*
X1296520Y593190D01*
X1296520Y594749D01*
X1290205Y594749D01*
X1289776Y594739D01*
X1289379Y594709D01*
X1289012Y594658D01*
X1288677Y594586D01*
X1288373Y594495D01*
X1288100Y594382D01*
X1287858Y594250D01*
X1287648Y594097D01*
X1287465Y593922D01*
X1287307Y593722D01*
X1287173Y593497D01*
X1287063Y593248D01*
X1286978Y592975D01*
X1286917Y592677D01*
X1286880Y592355D01*
X1286868Y592008D01*
X1286875Y591765D01*
X1286894Y591531D01*
X1286927Y591307D01*
X1286973Y591092D01*
X1287032Y590885D01*
X1287105Y590688D01*
X1287190Y590501D01*
X1287289Y590322D01*
X1287402Y590151D01*
X1287532Y589987D01*
X1287843Y589677D01*
X1288220Y589393D01*
X1288664Y589135D01*
X1288664Y589109D01*
X1288437Y589042D01*
X1288227Y588962D01*
X1288032Y588871D01*
X1287853Y588768D01*
X1287691Y588654D01*
X1287544Y588527D01*
X1287413Y588388D01*
X1287297Y588237D01*
X1287197Y588074D01*
X1287110Y587896D01*
X1287036Y587704D01*
X1286975Y587498D01*
X1286928Y587278D01*
X1286895Y587044D01*
X1286875Y586796D01*
X1286868Y586534D01*
X1286874Y586302D01*
X1286893Y586079D01*
X1286924Y585865D01*
X1286967Y585660D01*
X1287090Y585278D01*
X1287262Y584931D01*
X1287370Y584769D01*
X1287498Y584612D01*
X1287644Y584459D01*
X1287810Y584311D01*
X1288198Y584030D01*
X1288664Y583766D01*
X1288664Y583740D01*
X1287722Y583709D01*
X1287280Y583687D01*
X1287043Y583670D01*
X1287043Y582181D01*
X1287308Y582204D01*
G37*
G36*
X1293939Y553003D02*
X1294295Y553137D01*
X1294625Y553301D01*
X1294931Y553494D01*
X1295213Y553717D01*
X1295470Y553970D01*
X1295703Y554252D01*
X1295911Y554564D01*
X1296095Y554906D01*
X1296254Y555277D01*
X1296389Y555678D01*
X1296499Y556109D01*
X1296585Y556569D01*
X1296646Y557058D01*
X1296683Y557578D01*
X1296695Y558127D01*
X1296681Y558716D01*
X1296637Y559272D01*
X1296563Y559793D01*
X1296461Y560280D01*
X1296329Y560734D01*
X1296168Y561153D01*
X1295978Y561538D01*
X1295758Y561889D01*
X1295512Y562202D01*
X1295241Y562473D01*
X1294947Y562703D01*
X1294628Y562890D01*
X1294286Y563037D01*
X1293919Y563141D01*
X1293528Y563203D01*
X1293113Y563224D01*
X1292787Y563213D01*
X1292482Y563177D01*
X1292200Y563118D01*
X1291939Y563036D01*
X1291698Y562933D01*
X1291473Y562812D01*
X1291264Y562672D01*
X1291072Y562515D01*
X1290895Y562341D01*
X1290733Y562153D01*
X1290584Y561949D01*
X1290450Y561731D01*
X1290213Y561264D01*
X1290008Y560763D01*
X1289833Y560234D01*
X1289684Y559682D01*
X1289417Y558547D01*
X1289236Y557768D01*
X1289070Y557131D01*
X1288918Y556634D01*
X1288782Y556279D01*
X1288646Y556011D01*
X1288495Y555776D01*
X1288330Y555575D01*
X1288151Y555407D01*
X1287953Y555275D01*
X1287730Y555181D01*
X1287482Y555124D01*
X1287210Y555105D01*
X1286974Y555117D01*
X1286754Y555154D01*
X1286548Y555215D01*
X1286358Y555300D01*
X1286183Y555410D01*
X1286022Y555544D01*
X1285877Y555702D01*
X1285747Y555885D01*
X1285632Y556091D01*
X1285532Y556318D01*
X1285448Y556568D01*
X1285379Y556839D01*
X1285326Y557133D01*
X1285287Y557448D01*
X1285264Y557785D01*
X1285257Y558144D01*
X1285263Y558472D01*
X1285284Y558782D01*
X1285319Y559074D01*
X1285367Y559347D01*
X1285429Y559601D01*
X1285505Y559838D01*
X1285595Y560056D01*
X1285699Y560255D01*
X1285818Y560438D01*
X1285954Y560606D01*
X1286106Y560758D01*
X1286276Y560895D01*
X1286462Y561016D01*
X1286665Y561122D01*
X1286885Y561213D01*
X1287122Y561289D01*
X1286833Y562935D01*
X1286460Y562813D01*
X1286115Y562670D01*
X1285798Y562507D01*
X1285509Y562322D01*
X1285249Y562117D01*
X1285018Y561891D01*
X1284814Y561644D01*
X1284639Y561376D01*
X1284488Y561083D01*
X1284357Y560758D01*
X1284247Y560403D01*
X1284156Y560017D01*
X1284086Y559599D01*
X1284036Y559151D01*
X1284005Y558672D01*
X1283995Y558162D01*
X1284009Y557613D01*
X1284049Y557097D01*
X1284116Y556614D01*
X1284210Y556164D01*
X1284331Y555746D01*
X1284478Y555361D01*
X1284652Y555009D01*
X1284854Y554689D01*
X1285080Y554405D01*
X1285328Y554158D01*
X1285600Y553950D01*
X1285894Y553779D01*
X1286211Y553647D01*
X1286550Y553552D01*
X1286912Y553495D01*
X1287297Y553476D01*
X1287633Y553491D01*
X1287950Y553534D01*
X1288246Y553607D01*
X1288523Y553708D01*
X1288782Y553837D01*
X1289024Y553992D01*
X1289249Y554172D01*
X1289456Y554378D01*
X1289651Y554617D01*
X1289836Y554896D01*
X1290012Y555215D01*
X1290179Y555574D01*
X1290341Y555997D01*
X1290503Y556508D01*
X1290665Y557107D01*
X1290827Y557794D01*
X1291186Y559327D01*
X1291274Y559661D01*
X1291372Y559971D01*
X1291480Y560256D01*
X1291598Y560518D01*
X1291729Y560754D01*
X1291876Y560961D01*
X1292039Y561141D01*
X1292220Y561293D01*
X1292422Y561414D01*
X1292653Y561500D01*
X1292913Y561552D01*
X1293201Y561569D01*
X1293462Y561555D01*
X1293707Y561514D01*
X1293935Y561445D01*
X1294148Y561349D01*
X1294344Y561225D01*
X1294523Y561074D01*
X1294687Y560895D01*
X1294834Y560689D01*
X1294964Y560457D01*
X1295077Y560202D01*
X1295173Y559925D01*
X1295251Y559624D01*
X1295312Y559299D01*
X1295355Y558952D01*
X1295381Y558582D01*
X1295390Y558188D01*
X1295382Y557807D01*
X1295358Y557445D01*
X1295317Y557105D01*
X1295260Y556785D01*
X1295187Y556485D01*
X1295097Y556206D01*
X1294991Y555948D01*
X1294869Y555710D01*
X1294730Y555492D01*
X1294572Y555294D01*
X1294395Y555115D01*
X1294200Y554956D01*
X1293987Y554817D01*
X1293755Y554698D01*
X1293504Y554598D01*
X1293236Y554518D01*
X1293560Y552898D01*
X1293939Y553003D01*
G37*
G36*
X1292393Y540508D02*
X1292737Y540537D01*
X1293069Y540586D01*
X1293389Y540654D01*
X1293696Y540742D01*
X1293990Y540848D01*
X1294272Y540975D01*
X1294541Y541120D01*
X1294796Y541284D01*
X1295035Y541463D01*
X1295259Y541658D01*
X1295467Y541869D01*
X1295659Y542096D01*
X1295836Y542339D01*
X1295998Y542598D01*
X1296143Y542872D01*
X1296273Y543161D01*
X1296385Y543461D01*
X1296480Y543774D01*
X1296557Y544098D01*
X1296618Y544435D01*
X1296661Y544784D01*
X1296687Y545144D01*
X1296695Y545517D01*
X1296686Y545905D01*
X1296659Y546280D01*
X1296614Y546641D01*
X1296552Y546990D01*
X1296471Y547325D01*
X1296373Y547648D01*
X1296256Y547958D01*
X1296122Y548254D01*
X1295970Y548536D01*
X1295803Y548802D01*
X1295619Y549051D01*
X1295420Y549283D01*
X1295204Y549500D01*
X1294973Y549699D01*
X1294725Y549883D01*
X1294462Y550050D01*
X1294184Y550199D01*
X1293893Y550328D01*
X1293589Y550437D01*
X1293273Y550526D01*
X1292943Y550595D01*
X1292601Y550645D01*
X1292246Y550675D01*
X1291878Y550685D01*
X1284179Y550685D01*
X1284179Y549021D01*
X1291782Y549021D01*
X1292204Y549006D01*
X1292601Y548963D01*
X1292971Y548891D01*
X1293315Y548790D01*
X1293634Y548660D01*
X1293926Y548501D01*
X1294191Y548313D01*
X1294431Y548097D01*
X1294644Y547854D01*
X1294828Y547588D01*
X1294984Y547300D01*
X1295111Y546988D01*
X1295210Y546653D01*
X1295281Y546294D01*
X1295323Y545913D01*
X1295338Y545508D01*
X1295324Y545115D01*
X1295283Y544746D01*
X1295214Y544400D01*
X1295119Y544079D01*
X1294995Y543781D01*
X1294845Y543507D01*
X1294667Y543256D01*
X1294462Y543030D01*
X1294230Y542829D01*
X1293973Y542654D01*
X1293690Y542507D01*
X1293382Y542386D01*
X1293049Y542292D01*
X1292690Y542225D01*
X1292305Y542185D01*
X1291896Y542171D01*
X1284179Y542171D01*
X1284179Y540499D01*
X1292036Y540499D01*
X1292393Y540508D01*
G37*
G36*
X1287308Y601141D02*
X1287733Y601158D01*
X1289067Y601171D01*
X1296520Y601171D01*
X1296520Y602748D01*
X1291028Y602748D01*
X1290692Y602758D01*
X1290374Y602789D01*
X1290076Y602840D01*
X1289796Y602912D01*
X1289535Y603004D01*
X1289293Y603117D01*
X1289069Y603250D01*
X1288865Y603404D01*
X1288682Y603576D01*
X1288524Y603763D01*
X1288390Y603965D01*
X1288280Y604182D01*
X1288195Y604414D01*
X1288134Y604661D01*
X1288098Y604923D01*
X1288086Y605200D01*
X1288100Y605566D01*
X1288142Y605885D01*
X1288214Y606157D01*
X1288313Y606382D01*
X1288445Y606570D01*
X1288613Y606730D01*
X1288817Y606863D01*
X1289058Y606969D01*
X1289342Y607050D01*
X1289680Y607107D01*
X1290069Y607142D01*
X1290512Y607153D01*
X1296520Y607153D01*
X1296520Y608738D01*
X1290205Y608738D01*
X1289774Y608727D01*
X1289375Y608693D01*
X1289007Y608637D01*
X1288671Y608558D01*
X1288367Y608456D01*
X1288094Y608332D01*
X1287853Y608185D01*
X1287643Y608016D01*
X1287462Y607822D01*
X1287304Y607602D01*
X1287171Y607356D01*
X1287062Y607084D01*
X1286977Y606786D01*
X1286917Y606461D01*
X1286880Y606111D01*
X1286868Y605734D01*
X1286874Y605475D01*
X1286894Y605226D01*
X1286925Y604988D01*
X1286970Y604761D01*
X1287027Y604545D01*
X1287097Y604339D01*
X1287180Y604144D01*
X1287275Y603961D01*
X1287386Y603785D01*
X1287515Y603614D01*
X1287662Y603449D01*
X1287826Y603289D01*
X1288209Y602986D01*
X1288664Y602704D01*
X1288664Y602677D01*
X1287722Y602647D01*
X1287280Y602625D01*
X1287043Y602607D01*
X1287043Y601118D01*
X1287308Y601141D01*
G37*
%LPC*%
G36*
X1290731Y567197D02*
X1290731Y570315D01*
X1290739Y570686D01*
X1290765Y571033D01*
X1290807Y571356D01*
X1290867Y571656D01*
X1290944Y571931D01*
X1291037Y572183D01*
X1291148Y572410D01*
X1291276Y572614D01*
X1291421Y572793D01*
X1291583Y572949D01*
X1291761Y573081D01*
X1291957Y573189D01*
X1292170Y573272D01*
X1292400Y573332D01*
X1292647Y573368D01*
X1292912Y573380D01*
X1293185Y573369D01*
X1293441Y573336D01*
X1293680Y573282D01*
X1293901Y573205D01*
X1294105Y573106D01*
X1294291Y572986D01*
X1294460Y572844D01*
X1294611Y572679D01*
X1294744Y572491D01*
X1294860Y572277D01*
X1294958Y572037D01*
X1295038Y571771D01*
X1295100Y571479D01*
X1295144Y571160D01*
X1295171Y570816D01*
X1295180Y570446D01*
X1295180Y567197D01*
X1290731Y567197D01*
G37*
G36*
X1285519Y567197D02*
X1285519Y570008D01*
X1285526Y570323D01*
X1285546Y570618D01*
X1285580Y570894D01*
X1285627Y571151D01*
X1285687Y571389D01*
X1285761Y571608D01*
X1285848Y571807D01*
X1285948Y571987D01*
X1286065Y572148D01*
X1286199Y572286D01*
X1286350Y572404D01*
X1286520Y572500D01*
X1286707Y572575D01*
X1286912Y572628D01*
X1287135Y572660D01*
X1287376Y572671D01*
X1287628Y572660D01*
X1287864Y572629D01*
X1288082Y572578D01*
X1288284Y572505D01*
X1288469Y572412D01*
X1288637Y572299D01*
X1288788Y572164D01*
X1288922Y572009D01*
X1289040Y571833D01*
X1289142Y571636D01*
X1289229Y571418D01*
X1289300Y571178D01*
X1289355Y570918D01*
X1289394Y570636D01*
X1289418Y570332D01*
X1289426Y570008D01*
X1289426Y567197D01*
X1285519Y567197D01*
G37*
%LPD*%
G36*
X1296520Y598704D02*
X1287043Y598704D01*
X1287043Y597127D01*
X1296520Y597127D01*
X1296520Y598704D01*
G37*
G36*
X1296520Y612672D02*
X1287043Y612672D01*
X1287043Y611096D01*
X1296520Y611096D01*
X1296520Y612672D01*
G37*
G36*
X1285029Y598704D02*
X1283522Y598704D01*
X1283522Y597127D01*
X1285029Y597127D01*
X1285029Y598704D01*
G37*
G36*
X1285029Y612672D02*
X1283522Y612672D01*
X1283522Y611096D01*
X1285029Y611096D01*
X1285029Y612672D01*
G37*
D10*
X316931Y96768D02*
X325567Y96768D01*
X321249Y92450D02*
X321249Y101086D01*
X374843Y96768D02*
X383479Y96768D01*
D11*
X310200Y174407D02*
X335600Y199807D01*
X340680Y187107D02*
X373700Y199807D01*
X409260Y216317D02*
X287340Y216317D01*
X409260Y216317D02*
X409260Y81697D01*
X287340Y81697D01*
X287340Y216317D01*
D12*
X276743Y147695D02*
X276808Y147693D01*
X276872Y147687D01*
X276936Y147677D01*
X277000Y147664D01*
X277062Y147646D01*
X277123Y147625D01*
X277183Y147601D01*
X277241Y147572D01*
X277298Y147540D01*
X277352Y147505D01*
X277404Y147467D01*
X277454Y147425D01*
X277501Y147381D01*
X277545Y147334D01*
X277587Y147284D01*
X277625Y147232D01*
X277660Y147178D01*
X277692Y147121D01*
X277721Y147063D01*
X277745Y147003D01*
X277766Y146942D01*
X277784Y146880D01*
X277797Y146816D01*
X277807Y146752D01*
X277813Y146688D01*
X277815Y146623D01*
X277813Y146529D01*
X277807Y146435D01*
X277797Y146341D01*
X277784Y146248D01*
X277766Y146156D01*
X277745Y146064D01*
X277720Y145973D01*
X277691Y145883D01*
X277658Y145795D01*
X277622Y145708D01*
X277582Y145623D01*
X277539Y145539D01*
X277492Y145458D01*
X277442Y145378D01*
X277389Y145300D01*
X277332Y145225D01*
X277273Y145152D01*
X277210Y145082D01*
X277145Y145014D01*
X274061Y145149D02*
X273996Y145151D01*
X273932Y145157D01*
X273868Y145167D01*
X273804Y145180D01*
X273742Y145198D01*
X273681Y145219D01*
X273621Y145243D01*
X273563Y145272D01*
X273506Y145304D01*
X273452Y145339D01*
X273400Y145377D01*
X273350Y145419D01*
X273303Y145463D01*
X273259Y145510D01*
X273217Y145560D01*
X273179Y145612D01*
X273144Y145666D01*
X273112Y145723D01*
X273083Y145781D01*
X273059Y145841D01*
X273038Y145902D01*
X273020Y145964D01*
X273007Y146028D01*
X272997Y146092D01*
X272991Y146156D01*
X272989Y146221D01*
X272991Y146307D01*
X272996Y146393D01*
X273006Y146479D01*
X273019Y146564D01*
X273035Y146649D01*
X273055Y146733D01*
X273079Y146816D01*
X273106Y146898D01*
X273137Y146978D01*
X273171Y147058D01*
X273209Y147135D01*
X273250Y147211D01*
X273294Y147285D01*
X273341Y147358D01*
X273391Y147428D01*
X274999Y145685D02*
X274966Y145632D01*
X274929Y145581D01*
X274890Y145532D01*
X274848Y145485D01*
X274803Y145441D01*
X274756Y145400D01*
X274707Y145361D01*
X274655Y145325D01*
X274601Y145292D01*
X274546Y145263D01*
X274489Y145237D01*
X274430Y145214D01*
X274371Y145194D01*
X274310Y145178D01*
X274249Y145165D01*
X274186Y145156D01*
X274124Y145151D01*
X274061Y145149D01*
X275805Y147160D02*
X275838Y147213D01*
X275875Y147264D01*
X275914Y147313D01*
X275956Y147360D01*
X276001Y147404D01*
X276048Y147445D01*
X276097Y147484D01*
X276149Y147520D01*
X276203Y147553D01*
X276258Y147582D01*
X276315Y147608D01*
X276374Y147631D01*
X276433Y147651D01*
X276494Y147667D01*
X276555Y147680D01*
X276618Y147689D01*
X276680Y147694D01*
X276743Y147696D01*
X275804Y147160D02*
X275000Y145685D01*
X274061Y150318D02*
X272989Y151659D01*
X277815Y151659D01*
X277815Y152999D02*
X277815Y150318D01*
D10*
X1107255Y286185D02*
X1115891Y286185D01*
X1111573Y281867D02*
X1111573Y290503D01*
X1165167Y286185D02*
X1173803Y286185D01*
D11*
X1100524Y363824D02*
X1125924Y389224D01*
X1131004Y376524D02*
X1164024Y389224D01*
X1199584Y405734D02*
X1077664Y405734D01*
X1199584Y405734D02*
X1199584Y271114D01*
X1077664Y271114D01*
X1077664Y405734D01*
D12*
X1067067Y334369D02*
X1067132Y334367D01*
X1067196Y334361D01*
X1067260Y334351D01*
X1067324Y334338D01*
X1067386Y334320D01*
X1067447Y334299D01*
X1067507Y334275D01*
X1067565Y334246D01*
X1067622Y334214D01*
X1067676Y334179D01*
X1067728Y334141D01*
X1067778Y334099D01*
X1067825Y334055D01*
X1067869Y334008D01*
X1067911Y333958D01*
X1067949Y333906D01*
X1067984Y333852D01*
X1068016Y333795D01*
X1068045Y333737D01*
X1068069Y333677D01*
X1068090Y333616D01*
X1068108Y333554D01*
X1068121Y333490D01*
X1068131Y333426D01*
X1068137Y333362D01*
X1068139Y333297D01*
X1068137Y333203D01*
X1068131Y333109D01*
X1068121Y333015D01*
X1068108Y332922D01*
X1068090Y332830D01*
X1068069Y332738D01*
X1068044Y332647D01*
X1068015Y332557D01*
X1067982Y332469D01*
X1067946Y332382D01*
X1067906Y332297D01*
X1067863Y332213D01*
X1067816Y332132D01*
X1067766Y332052D01*
X1067713Y331974D01*
X1067656Y331899D01*
X1067597Y331826D01*
X1067534Y331756D01*
X1067469Y331688D01*
X1064385Y331823D02*
X1064320Y331825D01*
X1064256Y331831D01*
X1064192Y331841D01*
X1064128Y331854D01*
X1064066Y331872D01*
X1064005Y331893D01*
X1063945Y331917D01*
X1063887Y331946D01*
X1063830Y331978D01*
X1063776Y332013D01*
X1063724Y332051D01*
X1063674Y332093D01*
X1063627Y332137D01*
X1063583Y332184D01*
X1063541Y332234D01*
X1063503Y332286D01*
X1063468Y332340D01*
X1063436Y332397D01*
X1063407Y332455D01*
X1063383Y332515D01*
X1063362Y332576D01*
X1063344Y332638D01*
X1063331Y332702D01*
X1063321Y332766D01*
X1063315Y332830D01*
X1063313Y332895D01*
X1063315Y332981D01*
X1063320Y333067D01*
X1063330Y333153D01*
X1063343Y333238D01*
X1063359Y333323D01*
X1063379Y333407D01*
X1063403Y333490D01*
X1063430Y333572D01*
X1063461Y333652D01*
X1063495Y333732D01*
X1063533Y333809D01*
X1063574Y333885D01*
X1063618Y333959D01*
X1063665Y334032D01*
X1063715Y334102D01*
X1065323Y332359D02*
X1065290Y332306D01*
X1065253Y332255D01*
X1065214Y332206D01*
X1065172Y332159D01*
X1065127Y332115D01*
X1065080Y332074D01*
X1065031Y332035D01*
X1064979Y331999D01*
X1064925Y331966D01*
X1064870Y331937D01*
X1064813Y331911D01*
X1064754Y331888D01*
X1064695Y331868D01*
X1064634Y331852D01*
X1064573Y331839D01*
X1064510Y331830D01*
X1064448Y331825D01*
X1064385Y331823D01*
X1066129Y333833D02*
X1066162Y333886D01*
X1066199Y333937D01*
X1066238Y333986D01*
X1066280Y334033D01*
X1066325Y334077D01*
X1066372Y334118D01*
X1066421Y334157D01*
X1066473Y334193D01*
X1066527Y334226D01*
X1066582Y334255D01*
X1066639Y334281D01*
X1066698Y334304D01*
X1066757Y334324D01*
X1066818Y334340D01*
X1066879Y334353D01*
X1066942Y334362D01*
X1067004Y334367D01*
X1067067Y334369D01*
X1066128Y333833D02*
X1065324Y332359D01*
X1064385Y336992D02*
X1063313Y338333D01*
X1068139Y338333D01*
X1068139Y339673D02*
X1068139Y336992D01*
X1065726Y342478D02*
X1065606Y342480D01*
X1065486Y342485D01*
X1065366Y342494D01*
X1065246Y342507D01*
X1065127Y342523D01*
X1065008Y342543D01*
X1064890Y342567D01*
X1064773Y342594D01*
X1064657Y342624D01*
X1064542Y342658D01*
X1064427Y342696D01*
X1064314Y342737D01*
X1064203Y342781D01*
X1064092Y342829D01*
X1063983Y342880D01*
X1063983Y342881D02*
X1063926Y342902D01*
X1063870Y342928D01*
X1063815Y342956D01*
X1063763Y342988D01*
X1063712Y343024D01*
X1063664Y343062D01*
X1063618Y343103D01*
X1063575Y343147D01*
X1063535Y343193D01*
X1063498Y343242D01*
X1063464Y343294D01*
X1063433Y343347D01*
X1063405Y343402D01*
X1063381Y343458D01*
X1063360Y343516D01*
X1063343Y343575D01*
X1063330Y343635D01*
X1063321Y343696D01*
X1063315Y343758D01*
X1063313Y343819D01*
X1063315Y343880D01*
X1063321Y343942D01*
X1063330Y344003D01*
X1063343Y344063D01*
X1063360Y344122D01*
X1063381Y344180D01*
X1063405Y344236D01*
X1063433Y344291D01*
X1063464Y344344D01*
X1063498Y344396D01*
X1063535Y344445D01*
X1063575Y344491D01*
X1063618Y344535D01*
X1063664Y344576D01*
X1063712Y344614D01*
X1063763Y344650D01*
X1063815Y344682D01*
X1063870Y344710D01*
X1063926Y344736D01*
X1063983Y344757D01*
X1064092Y344808D01*
X1064203Y344856D01*
X1064314Y344900D01*
X1064427Y344941D01*
X1064542Y344979D01*
X1064657Y345013D01*
X1064773Y345043D01*
X1064890Y345070D01*
X1065008Y345094D01*
X1065127Y345114D01*
X1065246Y345130D01*
X1065366Y345143D01*
X1065486Y345152D01*
X1065606Y345157D01*
X1065726Y345159D01*
X1065726Y342479D02*
X1065846Y342481D01*
X1065966Y342486D01*
X1066086Y342495D01*
X1066206Y342508D01*
X1066325Y342524D01*
X1066444Y342544D01*
X1066562Y342568D01*
X1066679Y342595D01*
X1066795Y342625D01*
X1066910Y342659D01*
X1067025Y342697D01*
X1067138Y342738D01*
X1067249Y342782D01*
X1067360Y342830D01*
X1067469Y342881D01*
X1067526Y342902D01*
X1067582Y342928D01*
X1067637Y342956D01*
X1067689Y342988D01*
X1067740Y343024D01*
X1067788Y343062D01*
X1067834Y343103D01*
X1067877Y343147D01*
X1067917Y343193D01*
X1067954Y343242D01*
X1067988Y343294D01*
X1068019Y343347D01*
X1068047Y343402D01*
X1068071Y343458D01*
X1068092Y343516D01*
X1068109Y343575D01*
X1068122Y343635D01*
X1068131Y343696D01*
X1068137Y343758D01*
X1068139Y343819D01*
X1067469Y344757D02*
X1067360Y344808D01*
X1067249Y344856D01*
X1067138Y344900D01*
X1067025Y344941D01*
X1066910Y344979D01*
X1066795Y345013D01*
X1066679Y345043D01*
X1066562Y345070D01*
X1066444Y345094D01*
X1066325Y345114D01*
X1066206Y345130D01*
X1066086Y345143D01*
X1065966Y345152D01*
X1065846Y345157D01*
X1065726Y345159D01*
X1067469Y344757D02*
X1067526Y344736D01*
X1067582Y344710D01*
X1067637Y344682D01*
X1067689Y344650D01*
X1067740Y344614D01*
X1067788Y344576D01*
X1067834Y344535D01*
X1067877Y344491D01*
X1067917Y344444D01*
X1067954Y344396D01*
X1067988Y344344D01*
X1068019Y344291D01*
X1068047Y344236D01*
X1068071Y344180D01*
X1068092Y344122D01*
X1068109Y344063D01*
X1068122Y344003D01*
X1068131Y343942D01*
X1068137Y343880D01*
X1068139Y343819D01*
X1067067Y342746D02*
X1064385Y344891D01*
D10*
X525467Y97361D02*
X516831Y97361D01*
X521149Y93043D02*
X521149Y101679D01*
X574743Y97361D02*
X583379Y97361D01*
D11*
X510100Y175000D02*
X535500Y200400D01*
X540580Y187700D02*
X573600Y200400D01*
X609160Y216910D02*
X487240Y216910D01*
X609160Y216910D02*
X609160Y82290D01*
X487240Y82290D01*
X487240Y216910D01*
D12*
X476643Y148288D02*
X476708Y148286D01*
X476772Y148280D01*
X476836Y148270D01*
X476900Y148257D01*
X476962Y148239D01*
X477023Y148218D01*
X477083Y148194D01*
X477141Y148165D01*
X477198Y148133D01*
X477252Y148098D01*
X477304Y148060D01*
X477354Y148018D01*
X477401Y147974D01*
X477445Y147927D01*
X477487Y147877D01*
X477525Y147825D01*
X477560Y147771D01*
X477592Y147714D01*
X477621Y147656D01*
X477645Y147596D01*
X477666Y147535D01*
X477684Y147473D01*
X477697Y147409D01*
X477707Y147345D01*
X477713Y147281D01*
X477715Y147216D01*
X477713Y147122D01*
X477707Y147028D01*
X477697Y146934D01*
X477684Y146841D01*
X477666Y146749D01*
X477645Y146657D01*
X477620Y146566D01*
X477591Y146476D01*
X477558Y146388D01*
X477522Y146301D01*
X477482Y146216D01*
X477439Y146132D01*
X477392Y146051D01*
X477342Y145971D01*
X477289Y145893D01*
X477232Y145818D01*
X477173Y145745D01*
X477110Y145675D01*
X477045Y145607D01*
X473961Y145742D02*
X473896Y145744D01*
X473832Y145750D01*
X473768Y145760D01*
X473704Y145773D01*
X473642Y145791D01*
X473581Y145812D01*
X473521Y145836D01*
X473463Y145865D01*
X473406Y145897D01*
X473352Y145932D01*
X473300Y145970D01*
X473250Y146012D01*
X473203Y146056D01*
X473159Y146103D01*
X473117Y146153D01*
X473079Y146205D01*
X473044Y146259D01*
X473012Y146316D01*
X472983Y146374D01*
X472959Y146434D01*
X472938Y146495D01*
X472920Y146557D01*
X472907Y146621D01*
X472897Y146685D01*
X472891Y146749D01*
X472889Y146814D01*
X472891Y146900D01*
X472896Y146986D01*
X472906Y147072D01*
X472919Y147157D01*
X472935Y147242D01*
X472955Y147326D01*
X472979Y147409D01*
X473006Y147491D01*
X473037Y147571D01*
X473071Y147651D01*
X473109Y147728D01*
X473150Y147804D01*
X473194Y147878D01*
X473241Y147951D01*
X473291Y148021D01*
X474899Y146278D02*
X474866Y146225D01*
X474829Y146174D01*
X474790Y146125D01*
X474748Y146078D01*
X474703Y146034D01*
X474656Y145993D01*
X474607Y145954D01*
X474555Y145918D01*
X474501Y145885D01*
X474446Y145856D01*
X474389Y145830D01*
X474330Y145807D01*
X474271Y145787D01*
X474210Y145771D01*
X474149Y145758D01*
X474086Y145749D01*
X474024Y145744D01*
X473961Y145742D01*
X475705Y147753D02*
X475738Y147806D01*
X475775Y147857D01*
X475814Y147906D01*
X475856Y147953D01*
X475901Y147997D01*
X475948Y148038D01*
X475997Y148077D01*
X476049Y148113D01*
X476103Y148146D01*
X476158Y148175D01*
X476215Y148201D01*
X476274Y148224D01*
X476333Y148244D01*
X476394Y148260D01*
X476455Y148273D01*
X476518Y148282D01*
X476580Y148287D01*
X476643Y148289D01*
X475704Y147753D02*
X474900Y146278D01*
X472889Y152386D02*
X472891Y152454D01*
X472897Y152521D01*
X472906Y152588D01*
X472919Y152655D01*
X472936Y152720D01*
X472957Y152785D01*
X472981Y152848D01*
X473009Y152910D01*
X473040Y152970D01*
X473074Y153028D01*
X473112Y153084D01*
X473152Y153139D01*
X473196Y153190D01*
X473243Y153239D01*
X473292Y153286D01*
X473343Y153330D01*
X473398Y153370D01*
X473454Y153408D01*
X473512Y153442D01*
X473572Y153473D01*
X473634Y153501D01*
X473697Y153525D01*
X473762Y153546D01*
X473827Y153563D01*
X473894Y153576D01*
X473961Y153585D01*
X474028Y153591D01*
X474096Y153593D01*
X472889Y152386D02*
X472891Y152308D01*
X472897Y152230D01*
X472907Y152153D01*
X472920Y152076D01*
X472938Y152000D01*
X472959Y151925D01*
X472984Y151851D01*
X473013Y151779D01*
X473045Y151708D01*
X473081Y151639D01*
X473120Y151571D01*
X473163Y151506D01*
X473209Y151443D01*
X473258Y151382D01*
X473310Y151324D01*
X473365Y151269D01*
X473422Y151216D01*
X473482Y151167D01*
X473545Y151120D01*
X473610Y151077D01*
X473676Y151037D01*
X473745Y151000D01*
X473816Y150967D01*
X473888Y150937D01*
X473962Y150911D01*
X475034Y153190D02*
X474985Y153239D01*
X474933Y153286D01*
X474878Y153329D01*
X474821Y153370D01*
X474762Y153408D01*
X474701Y153442D01*
X474638Y153473D01*
X474574Y153501D01*
X474508Y153525D01*
X474442Y153545D01*
X474374Y153562D01*
X474305Y153575D01*
X474236Y153584D01*
X474166Y153590D01*
X474096Y153592D01*
X475034Y153190D02*
X477715Y150911D01*
X477715Y153592D01*
D10*
X716631Y97143D02*
X725267Y97143D01*
X720949Y92825D02*
X720949Y101461D01*
X774543Y97143D02*
X783179Y97143D01*
D11*
X709900Y174782D02*
X735300Y200182D01*
X740380Y187482D02*
X773400Y200182D01*
X808960Y216692D02*
X687040Y216692D01*
X808960Y216692D02*
X808960Y82072D01*
X687040Y82072D01*
X687040Y216692D01*
D12*
X726293Y138070D02*
X726358Y138068D01*
X726422Y138062D01*
X726486Y138052D01*
X726550Y138039D01*
X726612Y138021D01*
X726673Y138000D01*
X726733Y137976D01*
X726791Y137947D01*
X726848Y137915D01*
X726902Y137880D01*
X726954Y137842D01*
X727004Y137800D01*
X727051Y137756D01*
X727095Y137709D01*
X727137Y137659D01*
X727175Y137607D01*
X727210Y137553D01*
X727242Y137496D01*
X727271Y137438D01*
X727295Y137378D01*
X727316Y137317D01*
X727334Y137255D01*
X727347Y137191D01*
X727357Y137127D01*
X727363Y137063D01*
X727365Y136998D01*
X727363Y136904D01*
X727357Y136810D01*
X727347Y136716D01*
X727334Y136623D01*
X727316Y136531D01*
X727295Y136439D01*
X727270Y136348D01*
X727241Y136258D01*
X727208Y136170D01*
X727172Y136083D01*
X727132Y135998D01*
X727089Y135914D01*
X727042Y135833D01*
X726992Y135753D01*
X726939Y135675D01*
X726882Y135600D01*
X726823Y135527D01*
X726760Y135457D01*
X726695Y135389D01*
X723611Y135524D02*
X723546Y135526D01*
X723482Y135532D01*
X723418Y135542D01*
X723354Y135555D01*
X723292Y135573D01*
X723231Y135594D01*
X723171Y135618D01*
X723113Y135647D01*
X723056Y135679D01*
X723002Y135714D01*
X722950Y135752D01*
X722900Y135794D01*
X722853Y135838D01*
X722809Y135885D01*
X722767Y135935D01*
X722729Y135987D01*
X722694Y136041D01*
X722662Y136098D01*
X722633Y136156D01*
X722609Y136216D01*
X722588Y136277D01*
X722570Y136339D01*
X722557Y136403D01*
X722547Y136467D01*
X722541Y136531D01*
X722539Y136596D01*
X722541Y136682D01*
X722546Y136768D01*
X722556Y136854D01*
X722569Y136939D01*
X722585Y137024D01*
X722605Y137108D01*
X722629Y137191D01*
X722656Y137273D01*
X722687Y137353D01*
X722721Y137433D01*
X722759Y137510D01*
X722800Y137586D01*
X722844Y137660D01*
X722891Y137733D01*
X722941Y137803D01*
X724549Y136060D02*
X724516Y136007D01*
X724479Y135956D01*
X724440Y135907D01*
X724398Y135860D01*
X724353Y135816D01*
X724306Y135775D01*
X724257Y135736D01*
X724205Y135700D01*
X724151Y135667D01*
X724096Y135638D01*
X724039Y135612D01*
X723980Y135589D01*
X723921Y135569D01*
X723860Y135553D01*
X723799Y135540D01*
X723736Y135531D01*
X723674Y135526D01*
X723611Y135524D01*
X725355Y137535D02*
X725388Y137588D01*
X725425Y137639D01*
X725464Y137688D01*
X725506Y137735D01*
X725551Y137779D01*
X725598Y137820D01*
X725647Y137859D01*
X725699Y137895D01*
X725753Y137928D01*
X725808Y137957D01*
X725865Y137983D01*
X725924Y138006D01*
X725983Y138026D01*
X726044Y138042D01*
X726105Y138055D01*
X726168Y138064D01*
X726230Y138069D01*
X726293Y138071D01*
X725354Y137535D02*
X724550Y136060D01*
X727365Y140693D02*
X727365Y142034D01*
X727363Y142105D01*
X727357Y142177D01*
X727348Y142247D01*
X727335Y142317D01*
X727318Y142387D01*
X727297Y142455D01*
X727273Y142522D01*
X727245Y142588D01*
X727214Y142652D01*
X727179Y142715D01*
X727141Y142775D01*
X727100Y142834D01*
X727056Y142890D01*
X727009Y142944D01*
X726960Y142995D01*
X726907Y143043D01*
X726852Y143089D01*
X726795Y143131D01*
X726735Y143171D01*
X726674Y143207D01*
X726610Y143240D01*
X726545Y143269D01*
X726479Y143295D01*
X726411Y143318D01*
X726342Y143337D01*
X726272Y143352D01*
X726202Y143363D01*
X726131Y143371D01*
X726060Y143375D01*
X725988Y143375D01*
X725917Y143371D01*
X725846Y143363D01*
X725776Y143352D01*
X725706Y143337D01*
X725637Y143318D01*
X725569Y143295D01*
X725503Y143269D01*
X725438Y143240D01*
X725374Y143207D01*
X725313Y143171D01*
X725253Y143131D01*
X725196Y143089D01*
X725141Y143043D01*
X725088Y142995D01*
X725039Y142944D01*
X724992Y142890D01*
X724948Y142834D01*
X724907Y142775D01*
X724869Y142715D01*
X724834Y142652D01*
X724803Y142588D01*
X724775Y142522D01*
X724751Y142455D01*
X724730Y142387D01*
X724713Y142317D01*
X724700Y142247D01*
X724691Y142177D01*
X724685Y142105D01*
X724683Y142034D01*
X722539Y142302D02*
X722539Y140693D01*
X722539Y142302D02*
X722541Y142367D01*
X722547Y142431D01*
X722557Y142495D01*
X722570Y142559D01*
X722588Y142621D01*
X722609Y142682D01*
X722633Y142742D01*
X722662Y142800D01*
X722694Y142857D01*
X722729Y142911D01*
X722767Y142963D01*
X722809Y143013D01*
X722853Y143060D01*
X722900Y143104D01*
X722950Y143146D01*
X723002Y143184D01*
X723056Y143219D01*
X723113Y143251D01*
X723171Y143280D01*
X723231Y143304D01*
X723292Y143325D01*
X723354Y143343D01*
X723418Y143356D01*
X723482Y143366D01*
X723546Y143372D01*
X723611Y143374D01*
X723676Y143372D01*
X723740Y143366D01*
X723804Y143356D01*
X723868Y143343D01*
X723930Y143325D01*
X723991Y143304D01*
X724051Y143280D01*
X724109Y143251D01*
X724166Y143219D01*
X724220Y143184D01*
X724272Y143146D01*
X724322Y143104D01*
X724369Y143060D01*
X724413Y143013D01*
X724455Y142963D01*
X724493Y142911D01*
X724528Y142857D01*
X724560Y142800D01*
X724589Y142742D01*
X724613Y142682D01*
X724634Y142621D01*
X724652Y142559D01*
X724665Y142495D01*
X724675Y142431D01*
X724681Y142367D01*
X724683Y142302D01*
X724684Y142302D02*
X724684Y141229D01*
D10*
X908631Y97761D02*
X917267Y97761D01*
X912949Y93443D02*
X912949Y102079D01*
X966543Y97761D02*
X975179Y97761D01*
D11*
X901900Y175400D02*
X927300Y200800D01*
X932380Y188100D02*
X965400Y200800D01*
X1000960Y217310D02*
X879040Y217310D01*
X1000960Y217310D02*
X1000960Y82690D01*
X879040Y82690D01*
X879040Y217310D01*
D12*
X888293Y98688D02*
X888358Y98686D01*
X888422Y98680D01*
X888486Y98670D01*
X888550Y98657D01*
X888612Y98639D01*
X888673Y98618D01*
X888733Y98594D01*
X888791Y98565D01*
X888848Y98533D01*
X888902Y98498D01*
X888954Y98460D01*
X889004Y98418D01*
X889051Y98374D01*
X889095Y98327D01*
X889137Y98277D01*
X889175Y98225D01*
X889210Y98171D01*
X889242Y98114D01*
X889271Y98056D01*
X889295Y97996D01*
X889316Y97935D01*
X889334Y97873D01*
X889347Y97809D01*
X889357Y97745D01*
X889363Y97681D01*
X889365Y97616D01*
X889363Y97522D01*
X889357Y97428D01*
X889347Y97334D01*
X889334Y97241D01*
X889316Y97149D01*
X889295Y97057D01*
X889270Y96966D01*
X889241Y96876D01*
X889208Y96788D01*
X889172Y96701D01*
X889132Y96616D01*
X889089Y96532D01*
X889042Y96451D01*
X888992Y96371D01*
X888939Y96293D01*
X888882Y96218D01*
X888823Y96145D01*
X888760Y96075D01*
X888695Y96007D01*
X885611Y96142D02*
X885546Y96144D01*
X885482Y96150D01*
X885418Y96160D01*
X885354Y96173D01*
X885292Y96191D01*
X885231Y96212D01*
X885171Y96236D01*
X885113Y96265D01*
X885056Y96297D01*
X885002Y96332D01*
X884950Y96370D01*
X884900Y96412D01*
X884853Y96456D01*
X884809Y96503D01*
X884767Y96553D01*
X884729Y96605D01*
X884694Y96659D01*
X884662Y96716D01*
X884633Y96774D01*
X884609Y96834D01*
X884588Y96895D01*
X884570Y96957D01*
X884557Y97021D01*
X884547Y97085D01*
X884541Y97149D01*
X884539Y97214D01*
X884541Y97300D01*
X884546Y97386D01*
X884556Y97472D01*
X884569Y97557D01*
X884585Y97642D01*
X884605Y97726D01*
X884629Y97809D01*
X884656Y97891D01*
X884687Y97971D01*
X884721Y98051D01*
X884759Y98128D01*
X884800Y98204D01*
X884844Y98278D01*
X884891Y98351D01*
X884941Y98421D01*
X886549Y96678D02*
X886516Y96625D01*
X886479Y96574D01*
X886440Y96525D01*
X886398Y96478D01*
X886353Y96434D01*
X886306Y96393D01*
X886257Y96354D01*
X886205Y96318D01*
X886151Y96285D01*
X886096Y96256D01*
X886039Y96230D01*
X885980Y96207D01*
X885921Y96187D01*
X885860Y96171D01*
X885799Y96158D01*
X885736Y96149D01*
X885674Y96144D01*
X885611Y96142D01*
X887355Y98153D02*
X887388Y98206D01*
X887425Y98257D01*
X887464Y98306D01*
X887506Y98353D01*
X887551Y98397D01*
X887598Y98438D01*
X887647Y98477D01*
X887699Y98513D01*
X887753Y98546D01*
X887808Y98575D01*
X887865Y98601D01*
X887924Y98624D01*
X887983Y98644D01*
X888044Y98660D01*
X888105Y98673D01*
X888168Y98682D01*
X888230Y98687D01*
X888293Y98689D01*
X887354Y98153D02*
X886550Y96678D01*
X888293Y101311D02*
X884539Y102384D01*
X888293Y101311D02*
X888293Y103992D01*
X887220Y103188D02*
X889365Y103188D01*
D10*
X1106931Y98561D02*
X1115567Y98561D01*
X1111249Y94243D02*
X1111249Y102879D01*
X1164843Y98561D02*
X1173479Y98561D01*
D11*
X1100200Y176200D02*
X1125600Y201600D01*
X1130680Y188900D02*
X1163700Y201600D01*
X1199260Y218110D02*
X1077340Y218110D01*
X1199260Y218110D02*
X1199260Y83490D01*
X1077340Y83490D01*
X1077340Y218110D01*
D12*
X1066743Y149488D02*
X1066808Y149486D01*
X1066872Y149480D01*
X1066936Y149470D01*
X1067000Y149457D01*
X1067062Y149439D01*
X1067123Y149418D01*
X1067183Y149394D01*
X1067241Y149365D01*
X1067298Y149333D01*
X1067352Y149298D01*
X1067404Y149260D01*
X1067454Y149218D01*
X1067501Y149174D01*
X1067545Y149127D01*
X1067587Y149077D01*
X1067625Y149025D01*
X1067660Y148971D01*
X1067692Y148914D01*
X1067721Y148856D01*
X1067745Y148796D01*
X1067766Y148735D01*
X1067784Y148673D01*
X1067797Y148609D01*
X1067807Y148545D01*
X1067813Y148481D01*
X1067815Y148416D01*
X1067813Y148322D01*
X1067807Y148228D01*
X1067797Y148134D01*
X1067784Y148041D01*
X1067766Y147949D01*
X1067745Y147857D01*
X1067720Y147766D01*
X1067691Y147676D01*
X1067658Y147588D01*
X1067622Y147501D01*
X1067582Y147416D01*
X1067539Y147332D01*
X1067492Y147251D01*
X1067442Y147171D01*
X1067389Y147093D01*
X1067332Y147018D01*
X1067273Y146945D01*
X1067210Y146875D01*
X1067145Y146807D01*
X1064061Y146942D02*
X1063996Y146944D01*
X1063932Y146950D01*
X1063868Y146960D01*
X1063804Y146973D01*
X1063742Y146991D01*
X1063681Y147012D01*
X1063621Y147036D01*
X1063563Y147065D01*
X1063506Y147097D01*
X1063452Y147132D01*
X1063400Y147170D01*
X1063350Y147212D01*
X1063303Y147256D01*
X1063259Y147303D01*
X1063217Y147353D01*
X1063179Y147405D01*
X1063144Y147459D01*
X1063112Y147516D01*
X1063083Y147574D01*
X1063059Y147634D01*
X1063038Y147695D01*
X1063020Y147757D01*
X1063007Y147821D01*
X1062997Y147885D01*
X1062991Y147949D01*
X1062989Y148014D01*
X1062991Y148100D01*
X1062996Y148186D01*
X1063006Y148272D01*
X1063019Y148357D01*
X1063035Y148442D01*
X1063055Y148526D01*
X1063079Y148609D01*
X1063106Y148691D01*
X1063137Y148771D01*
X1063171Y148851D01*
X1063209Y148928D01*
X1063250Y149004D01*
X1063294Y149078D01*
X1063341Y149151D01*
X1063391Y149221D01*
X1064999Y147478D02*
X1064966Y147425D01*
X1064929Y147374D01*
X1064890Y147325D01*
X1064848Y147278D01*
X1064803Y147234D01*
X1064756Y147193D01*
X1064707Y147154D01*
X1064655Y147118D01*
X1064601Y147085D01*
X1064546Y147056D01*
X1064489Y147030D01*
X1064430Y147007D01*
X1064371Y146987D01*
X1064310Y146971D01*
X1064249Y146958D01*
X1064186Y146949D01*
X1064124Y146944D01*
X1064061Y146942D01*
X1065805Y148953D02*
X1065838Y149006D01*
X1065875Y149057D01*
X1065914Y149106D01*
X1065956Y149153D01*
X1066001Y149197D01*
X1066048Y149238D01*
X1066097Y149277D01*
X1066149Y149313D01*
X1066203Y149346D01*
X1066258Y149375D01*
X1066315Y149401D01*
X1066374Y149424D01*
X1066433Y149444D01*
X1066494Y149460D01*
X1066555Y149473D01*
X1066618Y149482D01*
X1066680Y149487D01*
X1066743Y149489D01*
X1065804Y148953D02*
X1065000Y147478D01*
X1067815Y152111D02*
X1067815Y153720D01*
X1067813Y153785D01*
X1067807Y153849D01*
X1067797Y153913D01*
X1067784Y153977D01*
X1067766Y154039D01*
X1067745Y154100D01*
X1067721Y154160D01*
X1067692Y154218D01*
X1067660Y154275D01*
X1067625Y154329D01*
X1067587Y154381D01*
X1067545Y154431D01*
X1067501Y154478D01*
X1067454Y154522D01*
X1067404Y154564D01*
X1067352Y154602D01*
X1067298Y154637D01*
X1067241Y154669D01*
X1067183Y154698D01*
X1067123Y154722D01*
X1067062Y154743D01*
X1067000Y154761D01*
X1066936Y154774D01*
X1066872Y154784D01*
X1066808Y154790D01*
X1066743Y154792D01*
X1066206Y154792D01*
X1066141Y154790D01*
X1066077Y154784D01*
X1066013Y154774D01*
X1065949Y154761D01*
X1065887Y154743D01*
X1065826Y154722D01*
X1065766Y154698D01*
X1065708Y154669D01*
X1065651Y154637D01*
X1065597Y154602D01*
X1065545Y154564D01*
X1065495Y154522D01*
X1065448Y154478D01*
X1065404Y154431D01*
X1065362Y154381D01*
X1065324Y154329D01*
X1065289Y154275D01*
X1065257Y154218D01*
X1065228Y154160D01*
X1065204Y154100D01*
X1065183Y154039D01*
X1065165Y153977D01*
X1065152Y153913D01*
X1065142Y153849D01*
X1065136Y153785D01*
X1065134Y153720D01*
X1065134Y152111D01*
X1062989Y152111D01*
X1062989Y154792D01*
D10*
X526467Y286561D02*
X517831Y286561D01*
X522149Y282243D02*
X522149Y290879D01*
X575743Y286561D02*
X584379Y286561D01*
D11*
X511100Y364200D02*
X536500Y389600D01*
X541580Y376900D02*
X574600Y389600D01*
X610160Y406110D02*
X488240Y406110D01*
X610160Y406110D02*
X610160Y271490D01*
X488240Y271490D01*
X488240Y406110D01*
D12*
X477643Y337488D02*
X477708Y337486D01*
X477772Y337480D01*
X477836Y337470D01*
X477900Y337457D01*
X477962Y337439D01*
X478023Y337418D01*
X478083Y337394D01*
X478141Y337365D01*
X478198Y337333D01*
X478252Y337298D01*
X478304Y337260D01*
X478354Y337218D01*
X478401Y337174D01*
X478445Y337127D01*
X478487Y337077D01*
X478525Y337025D01*
X478560Y336971D01*
X478592Y336914D01*
X478621Y336856D01*
X478645Y336796D01*
X478666Y336735D01*
X478684Y336673D01*
X478697Y336609D01*
X478707Y336545D01*
X478713Y336481D01*
X478715Y336416D01*
X478713Y336322D01*
X478707Y336228D01*
X478697Y336134D01*
X478684Y336041D01*
X478666Y335949D01*
X478645Y335857D01*
X478620Y335766D01*
X478591Y335676D01*
X478558Y335588D01*
X478522Y335501D01*
X478482Y335416D01*
X478439Y335332D01*
X478392Y335251D01*
X478342Y335171D01*
X478289Y335093D01*
X478232Y335018D01*
X478173Y334945D01*
X478110Y334875D01*
X478045Y334807D01*
X474961Y334942D02*
X474896Y334944D01*
X474832Y334950D01*
X474768Y334960D01*
X474704Y334973D01*
X474642Y334991D01*
X474581Y335012D01*
X474521Y335036D01*
X474463Y335065D01*
X474406Y335097D01*
X474352Y335132D01*
X474300Y335170D01*
X474250Y335212D01*
X474203Y335256D01*
X474159Y335303D01*
X474117Y335353D01*
X474079Y335405D01*
X474044Y335459D01*
X474012Y335516D01*
X473983Y335574D01*
X473959Y335634D01*
X473938Y335695D01*
X473920Y335757D01*
X473907Y335821D01*
X473897Y335885D01*
X473891Y335949D01*
X473889Y336014D01*
X473891Y336100D01*
X473896Y336186D01*
X473906Y336272D01*
X473919Y336357D01*
X473935Y336442D01*
X473955Y336526D01*
X473979Y336609D01*
X474006Y336691D01*
X474037Y336771D01*
X474071Y336851D01*
X474109Y336928D01*
X474150Y337004D01*
X474194Y337078D01*
X474241Y337151D01*
X474291Y337221D01*
X475899Y335478D02*
X475866Y335425D01*
X475829Y335374D01*
X475790Y335325D01*
X475748Y335278D01*
X475703Y335234D01*
X475656Y335193D01*
X475607Y335154D01*
X475555Y335118D01*
X475501Y335085D01*
X475446Y335056D01*
X475389Y335030D01*
X475330Y335007D01*
X475271Y334987D01*
X475210Y334971D01*
X475149Y334958D01*
X475086Y334949D01*
X475024Y334944D01*
X474961Y334942D01*
X476705Y336953D02*
X476738Y337006D01*
X476775Y337057D01*
X476814Y337106D01*
X476856Y337153D01*
X476901Y337197D01*
X476948Y337238D01*
X476997Y337277D01*
X477049Y337313D01*
X477103Y337346D01*
X477158Y337375D01*
X477215Y337401D01*
X477274Y337424D01*
X477333Y337444D01*
X477394Y337460D01*
X477455Y337473D01*
X477518Y337482D01*
X477580Y337487D01*
X477643Y337489D01*
X476704Y336953D02*
X475900Y335478D01*
X476034Y340111D02*
X476034Y341720D01*
X476036Y341785D01*
X476042Y341849D01*
X476052Y341913D01*
X476065Y341977D01*
X476083Y342039D01*
X476104Y342100D01*
X476128Y342160D01*
X476157Y342218D01*
X476189Y342275D01*
X476224Y342329D01*
X476262Y342381D01*
X476304Y342431D01*
X476348Y342478D01*
X476395Y342522D01*
X476445Y342564D01*
X476497Y342602D01*
X476551Y342637D01*
X476608Y342669D01*
X476666Y342698D01*
X476726Y342722D01*
X476787Y342743D01*
X476849Y342761D01*
X476913Y342774D01*
X476977Y342784D01*
X477041Y342790D01*
X477106Y342792D01*
X477374Y342792D01*
X477374Y342793D02*
X477445Y342791D01*
X477517Y342785D01*
X477587Y342776D01*
X477657Y342763D01*
X477727Y342746D01*
X477795Y342725D01*
X477862Y342701D01*
X477928Y342673D01*
X477992Y342642D01*
X478055Y342607D01*
X478115Y342569D01*
X478174Y342528D01*
X478230Y342484D01*
X478284Y342437D01*
X478335Y342388D01*
X478383Y342335D01*
X478429Y342280D01*
X478471Y342223D01*
X478511Y342163D01*
X478547Y342102D01*
X478580Y342038D01*
X478609Y341973D01*
X478635Y341907D01*
X478658Y341839D01*
X478677Y341770D01*
X478692Y341700D01*
X478703Y341630D01*
X478711Y341559D01*
X478715Y341488D01*
X478715Y341416D01*
X478711Y341345D01*
X478703Y341274D01*
X478692Y341204D01*
X478677Y341134D01*
X478658Y341065D01*
X478635Y340997D01*
X478609Y340931D01*
X478580Y340866D01*
X478547Y340802D01*
X478511Y340741D01*
X478471Y340681D01*
X478429Y340624D01*
X478383Y340569D01*
X478335Y340516D01*
X478284Y340467D01*
X478230Y340420D01*
X478174Y340376D01*
X478115Y340335D01*
X478055Y340297D01*
X477992Y340262D01*
X477928Y340231D01*
X477862Y340203D01*
X477795Y340179D01*
X477727Y340158D01*
X477657Y340141D01*
X477587Y340128D01*
X477517Y340119D01*
X477445Y340113D01*
X477374Y340111D01*
X476034Y340111D01*
X475943Y340113D01*
X475852Y340119D01*
X475762Y340128D01*
X475671Y340142D01*
X475582Y340159D01*
X475494Y340180D01*
X475406Y340205D01*
X475319Y340234D01*
X475234Y340266D01*
X475150Y340301D01*
X475068Y340341D01*
X474988Y340383D01*
X474909Y340429D01*
X474833Y340479D01*
X474759Y340531D01*
X474686Y340587D01*
X474617Y340646D01*
X474550Y340707D01*
X474485Y340772D01*
X474424Y340839D01*
X474365Y340908D01*
X474309Y340980D01*
X474257Y341055D01*
X474207Y341131D01*
X474161Y341210D01*
X474119Y341290D01*
X474079Y341372D01*
X474044Y341456D01*
X474012Y341541D01*
X473983Y341628D01*
X473958Y341715D01*
X473937Y341804D01*
X473920Y341893D01*
X473906Y341983D01*
X473897Y342074D01*
X473891Y342165D01*
X473889Y342256D01*
D10*
X325367Y286561D02*
X316731Y286561D01*
X321049Y282243D02*
X321049Y290879D01*
X374643Y286561D02*
X383279Y286561D01*
D11*
X310000Y364200D02*
X335400Y389600D01*
X340480Y376900D02*
X373500Y389600D01*
X409060Y406110D02*
X287140Y406110D01*
X409060Y406110D02*
X409060Y271490D01*
X287140Y271490D01*
X287140Y406110D01*
D12*
X276543Y337488D02*
X276608Y337486D01*
X276672Y337480D01*
X276736Y337470D01*
X276800Y337457D01*
X276862Y337439D01*
X276923Y337418D01*
X276983Y337394D01*
X277041Y337365D01*
X277098Y337333D01*
X277152Y337298D01*
X277204Y337260D01*
X277254Y337218D01*
X277301Y337174D01*
X277345Y337127D01*
X277387Y337077D01*
X277425Y337025D01*
X277460Y336971D01*
X277492Y336914D01*
X277521Y336856D01*
X277545Y336796D01*
X277566Y336735D01*
X277584Y336673D01*
X277597Y336609D01*
X277607Y336545D01*
X277613Y336481D01*
X277615Y336416D01*
X277613Y336322D01*
X277607Y336228D01*
X277597Y336134D01*
X277584Y336041D01*
X277566Y335949D01*
X277545Y335857D01*
X277520Y335766D01*
X277491Y335676D01*
X277458Y335588D01*
X277422Y335501D01*
X277382Y335416D01*
X277339Y335332D01*
X277292Y335251D01*
X277242Y335171D01*
X277189Y335093D01*
X277132Y335018D01*
X277073Y334945D01*
X277010Y334875D01*
X276945Y334807D01*
X273861Y334942D02*
X273796Y334944D01*
X273732Y334950D01*
X273668Y334960D01*
X273604Y334973D01*
X273542Y334991D01*
X273481Y335012D01*
X273421Y335036D01*
X273363Y335065D01*
X273306Y335097D01*
X273252Y335132D01*
X273200Y335170D01*
X273150Y335212D01*
X273103Y335256D01*
X273059Y335303D01*
X273017Y335353D01*
X272979Y335405D01*
X272944Y335459D01*
X272912Y335516D01*
X272883Y335574D01*
X272859Y335634D01*
X272838Y335695D01*
X272820Y335757D01*
X272807Y335821D01*
X272797Y335885D01*
X272791Y335949D01*
X272789Y336014D01*
X272791Y336100D01*
X272796Y336186D01*
X272806Y336272D01*
X272819Y336357D01*
X272835Y336442D01*
X272855Y336526D01*
X272879Y336609D01*
X272906Y336691D01*
X272937Y336771D01*
X272971Y336851D01*
X273009Y336928D01*
X273050Y337004D01*
X273094Y337078D01*
X273141Y337151D01*
X273191Y337221D01*
X274799Y335478D02*
X274766Y335425D01*
X274729Y335374D01*
X274690Y335325D01*
X274648Y335278D01*
X274603Y335234D01*
X274556Y335193D01*
X274507Y335154D01*
X274455Y335118D01*
X274401Y335085D01*
X274346Y335056D01*
X274289Y335030D01*
X274230Y335007D01*
X274171Y334987D01*
X274110Y334971D01*
X274049Y334958D01*
X273986Y334949D01*
X273924Y334944D01*
X273861Y334942D01*
X275605Y336953D02*
X275638Y337006D01*
X275675Y337057D01*
X275714Y337106D01*
X275756Y337153D01*
X275801Y337197D01*
X275848Y337238D01*
X275897Y337277D01*
X275949Y337313D01*
X276003Y337346D01*
X276058Y337375D01*
X276115Y337401D01*
X276174Y337424D01*
X276233Y337444D01*
X276294Y337460D01*
X276355Y337473D01*
X276418Y337482D01*
X276480Y337487D01*
X276543Y337489D01*
X275604Y336953D02*
X274800Y335478D01*
X273325Y340111D02*
X272789Y340111D01*
X272789Y342792D01*
X277615Y341452D01*
D10*
X716717Y287422D02*
X725353Y287422D01*
X721035Y283104D02*
X721035Y291740D01*
X774629Y287422D02*
X783265Y287422D01*
D11*
X709986Y365061D02*
X735386Y390461D01*
X740466Y377761D02*
X773486Y390461D01*
X809046Y406971D02*
X687126Y406971D01*
X809046Y406971D02*
X809046Y272351D01*
X687126Y272351D01*
X687126Y406971D01*
D12*
X676529Y338350D02*
X676594Y338348D01*
X676658Y338342D01*
X676722Y338332D01*
X676786Y338319D01*
X676848Y338301D01*
X676909Y338280D01*
X676969Y338256D01*
X677027Y338227D01*
X677084Y338195D01*
X677138Y338160D01*
X677190Y338122D01*
X677240Y338080D01*
X677287Y338036D01*
X677331Y337989D01*
X677373Y337939D01*
X677411Y337887D01*
X677446Y337833D01*
X677478Y337776D01*
X677507Y337718D01*
X677531Y337658D01*
X677552Y337597D01*
X677570Y337535D01*
X677583Y337471D01*
X677593Y337407D01*
X677599Y337343D01*
X677601Y337278D01*
X677602Y337278D02*
X677600Y337184D01*
X677594Y337090D01*
X677584Y336996D01*
X677571Y336903D01*
X677553Y336811D01*
X677532Y336719D01*
X677507Y336628D01*
X677478Y336538D01*
X677445Y336450D01*
X677409Y336363D01*
X677369Y336278D01*
X677326Y336194D01*
X677279Y336113D01*
X677229Y336033D01*
X677176Y335955D01*
X677119Y335880D01*
X677060Y335807D01*
X676997Y335737D01*
X676932Y335669D01*
X673848Y335804D02*
X673783Y335806D01*
X673719Y335812D01*
X673655Y335822D01*
X673591Y335835D01*
X673529Y335853D01*
X673468Y335874D01*
X673408Y335898D01*
X673350Y335927D01*
X673293Y335959D01*
X673239Y335994D01*
X673187Y336032D01*
X673137Y336074D01*
X673090Y336118D01*
X673046Y336165D01*
X673004Y336215D01*
X672966Y336267D01*
X672931Y336321D01*
X672899Y336378D01*
X672870Y336436D01*
X672846Y336496D01*
X672825Y336557D01*
X672807Y336619D01*
X672794Y336683D01*
X672784Y336747D01*
X672778Y336811D01*
X672776Y336876D01*
X672775Y336876D02*
X672777Y336962D01*
X672782Y337048D01*
X672792Y337134D01*
X672805Y337219D01*
X672821Y337304D01*
X672841Y337388D01*
X672865Y337471D01*
X672892Y337553D01*
X672923Y337633D01*
X672957Y337713D01*
X672995Y337790D01*
X673036Y337866D01*
X673080Y337940D01*
X673127Y338013D01*
X673177Y338083D01*
X674786Y336339D02*
X674753Y336286D01*
X674716Y336235D01*
X674677Y336186D01*
X674635Y336139D01*
X674590Y336095D01*
X674543Y336054D01*
X674494Y336015D01*
X674442Y335979D01*
X674388Y335946D01*
X674333Y335917D01*
X674276Y335891D01*
X674217Y335868D01*
X674158Y335848D01*
X674097Y335832D01*
X674036Y335819D01*
X673973Y335810D01*
X673911Y335805D01*
X673848Y335803D01*
X675591Y337814D02*
X675624Y337867D01*
X675661Y337918D01*
X675700Y337967D01*
X675742Y338014D01*
X675787Y338058D01*
X675834Y338099D01*
X675883Y338138D01*
X675935Y338174D01*
X675989Y338207D01*
X676044Y338236D01*
X676101Y338262D01*
X676160Y338285D01*
X676219Y338305D01*
X676280Y338321D01*
X676341Y338334D01*
X676404Y338343D01*
X676466Y338348D01*
X676529Y338350D01*
X675591Y337814D02*
X674786Y336339D01*
X676261Y340972D02*
X676190Y340974D01*
X676118Y340980D01*
X676048Y340989D01*
X675978Y341002D01*
X675908Y341019D01*
X675840Y341040D01*
X675773Y341064D01*
X675707Y341092D01*
X675643Y341123D01*
X675580Y341158D01*
X675520Y341196D01*
X675461Y341237D01*
X675405Y341281D01*
X675351Y341328D01*
X675300Y341377D01*
X675252Y341430D01*
X675206Y341485D01*
X675164Y341542D01*
X675124Y341602D01*
X675088Y341663D01*
X675055Y341727D01*
X675026Y341792D01*
X675000Y341858D01*
X674977Y341926D01*
X674958Y341995D01*
X674943Y342065D01*
X674932Y342135D01*
X674924Y342206D01*
X674920Y342277D01*
X674920Y342349D01*
X674924Y342420D01*
X674932Y342491D01*
X674943Y342561D01*
X674958Y342631D01*
X674977Y342700D01*
X675000Y342768D01*
X675026Y342834D01*
X675055Y342899D01*
X675088Y342963D01*
X675124Y343024D01*
X675164Y343084D01*
X675206Y343141D01*
X675252Y343196D01*
X675300Y343249D01*
X675351Y343298D01*
X675405Y343345D01*
X675461Y343389D01*
X675520Y343430D01*
X675580Y343468D01*
X675643Y343503D01*
X675707Y343534D01*
X675773Y343562D01*
X675840Y343586D01*
X675908Y343607D01*
X675978Y343624D01*
X676048Y343637D01*
X676118Y343646D01*
X676190Y343652D01*
X676261Y343654D01*
X676332Y343652D01*
X676404Y343646D01*
X676474Y343637D01*
X676544Y343624D01*
X676614Y343607D01*
X676682Y343586D01*
X676749Y343562D01*
X676815Y343534D01*
X676879Y343503D01*
X676942Y343468D01*
X677002Y343430D01*
X677061Y343389D01*
X677117Y343345D01*
X677171Y343298D01*
X677222Y343249D01*
X677270Y343196D01*
X677316Y343141D01*
X677358Y343084D01*
X677398Y343024D01*
X677434Y342963D01*
X677467Y342899D01*
X677496Y342834D01*
X677522Y342768D01*
X677545Y342700D01*
X677564Y342631D01*
X677579Y342561D01*
X677590Y342491D01*
X677598Y342420D01*
X677602Y342349D01*
X677602Y342277D01*
X677598Y342206D01*
X677590Y342135D01*
X677579Y342065D01*
X677564Y341995D01*
X677545Y341926D01*
X677522Y341858D01*
X677496Y341792D01*
X677467Y341727D01*
X677434Y341663D01*
X677398Y341602D01*
X677358Y341542D01*
X677316Y341485D01*
X677270Y341430D01*
X677222Y341377D01*
X677171Y341328D01*
X677117Y341281D01*
X677061Y341237D01*
X677002Y341196D01*
X676942Y341158D01*
X676879Y341123D01*
X676815Y341092D01*
X676749Y341064D01*
X676682Y341040D01*
X676614Y341019D01*
X676544Y341002D01*
X676474Y340989D01*
X676404Y340980D01*
X676332Y340974D01*
X676261Y340972D01*
X673848Y341241D02*
X673783Y341243D01*
X673719Y341249D01*
X673655Y341259D01*
X673591Y341272D01*
X673529Y341290D01*
X673468Y341311D01*
X673408Y341335D01*
X673350Y341364D01*
X673293Y341396D01*
X673239Y341431D01*
X673187Y341469D01*
X673137Y341511D01*
X673090Y341555D01*
X673046Y341602D01*
X673004Y341652D01*
X672966Y341704D01*
X672931Y341758D01*
X672899Y341815D01*
X672870Y341873D01*
X672846Y341933D01*
X672825Y341994D01*
X672807Y342056D01*
X672794Y342120D01*
X672784Y342184D01*
X672778Y342248D01*
X672776Y342313D01*
X672778Y342378D01*
X672784Y342442D01*
X672794Y342506D01*
X672807Y342570D01*
X672825Y342632D01*
X672846Y342693D01*
X672870Y342753D01*
X672899Y342811D01*
X672931Y342868D01*
X672966Y342922D01*
X673004Y342974D01*
X673046Y343024D01*
X673090Y343071D01*
X673137Y343115D01*
X673187Y343157D01*
X673239Y343195D01*
X673293Y343230D01*
X673350Y343262D01*
X673408Y343291D01*
X673468Y343315D01*
X673529Y343336D01*
X673591Y343354D01*
X673655Y343367D01*
X673719Y343377D01*
X673783Y343383D01*
X673848Y343385D01*
X673913Y343383D01*
X673977Y343377D01*
X674041Y343367D01*
X674105Y343354D01*
X674167Y343336D01*
X674228Y343315D01*
X674288Y343291D01*
X674346Y343262D01*
X674403Y343230D01*
X674457Y343195D01*
X674509Y343157D01*
X674559Y343115D01*
X674606Y343071D01*
X674650Y343024D01*
X674692Y342974D01*
X674730Y342922D01*
X674765Y342868D01*
X674797Y342811D01*
X674826Y342753D01*
X674850Y342693D01*
X674871Y342632D01*
X674889Y342570D01*
X674902Y342506D01*
X674912Y342442D01*
X674918Y342378D01*
X674920Y342313D01*
X674918Y342248D01*
X674912Y342184D01*
X674902Y342120D01*
X674889Y342056D01*
X674871Y341994D01*
X674850Y341933D01*
X674826Y341873D01*
X674797Y341815D01*
X674765Y341758D01*
X674730Y341704D01*
X674692Y341652D01*
X674650Y341602D01*
X674606Y341555D01*
X674559Y341511D01*
X674509Y341469D01*
X674457Y341431D01*
X674403Y341396D01*
X674346Y341364D01*
X674288Y341335D01*
X674228Y341311D01*
X674167Y341290D01*
X674105Y341272D01*
X674041Y341259D01*
X673977Y341249D01*
X673913Y341243D01*
X673848Y341241D01*
D10*
X908931Y286761D02*
X917567Y286761D01*
X913249Y282443D02*
X913249Y291079D01*
X966843Y286761D02*
X975479Y286761D01*
D11*
X902200Y364400D02*
X927600Y389800D01*
X932680Y377100D02*
X965700Y389800D01*
X1001260Y406310D02*
X879340Y406310D01*
X1001260Y406310D02*
X1001260Y271690D01*
X879340Y271690D01*
X879340Y406310D01*
D12*
X868743Y337688D02*
X868808Y337686D01*
X868872Y337680D01*
X868936Y337670D01*
X869000Y337657D01*
X869062Y337639D01*
X869123Y337618D01*
X869183Y337594D01*
X869241Y337565D01*
X869298Y337533D01*
X869352Y337498D01*
X869404Y337460D01*
X869454Y337418D01*
X869501Y337374D01*
X869545Y337327D01*
X869587Y337277D01*
X869625Y337225D01*
X869660Y337171D01*
X869692Y337114D01*
X869721Y337056D01*
X869745Y336996D01*
X869766Y336935D01*
X869784Y336873D01*
X869797Y336809D01*
X869807Y336745D01*
X869813Y336681D01*
X869815Y336616D01*
X869813Y336522D01*
X869807Y336428D01*
X869797Y336334D01*
X869784Y336241D01*
X869766Y336149D01*
X869745Y336057D01*
X869720Y335966D01*
X869691Y335876D01*
X869658Y335788D01*
X869622Y335701D01*
X869582Y335616D01*
X869539Y335532D01*
X869492Y335451D01*
X869442Y335371D01*
X869389Y335293D01*
X869332Y335218D01*
X869273Y335145D01*
X869210Y335075D01*
X869145Y335007D01*
X866061Y335142D02*
X865996Y335144D01*
X865932Y335150D01*
X865868Y335160D01*
X865804Y335173D01*
X865742Y335191D01*
X865681Y335212D01*
X865621Y335236D01*
X865563Y335265D01*
X865506Y335297D01*
X865452Y335332D01*
X865400Y335370D01*
X865350Y335412D01*
X865303Y335456D01*
X865259Y335503D01*
X865217Y335553D01*
X865179Y335605D01*
X865144Y335659D01*
X865112Y335716D01*
X865083Y335774D01*
X865059Y335834D01*
X865038Y335895D01*
X865020Y335957D01*
X865007Y336021D01*
X864997Y336085D01*
X864991Y336149D01*
X864989Y336214D01*
X864991Y336300D01*
X864996Y336386D01*
X865006Y336472D01*
X865019Y336557D01*
X865035Y336642D01*
X865055Y336726D01*
X865079Y336809D01*
X865106Y336891D01*
X865137Y336971D01*
X865171Y337051D01*
X865209Y337128D01*
X865250Y337204D01*
X865294Y337278D01*
X865341Y337351D01*
X865391Y337421D01*
X866999Y335678D02*
X866966Y335625D01*
X866929Y335574D01*
X866890Y335525D01*
X866848Y335478D01*
X866803Y335434D01*
X866756Y335393D01*
X866707Y335354D01*
X866655Y335318D01*
X866601Y335285D01*
X866546Y335256D01*
X866489Y335230D01*
X866430Y335207D01*
X866371Y335187D01*
X866310Y335171D01*
X866249Y335158D01*
X866186Y335149D01*
X866124Y335144D01*
X866061Y335142D01*
X867805Y337153D02*
X867838Y337206D01*
X867875Y337257D01*
X867914Y337306D01*
X867956Y337353D01*
X868001Y337397D01*
X868048Y337438D01*
X868097Y337477D01*
X868149Y337513D01*
X868203Y337546D01*
X868258Y337575D01*
X868315Y337601D01*
X868374Y337624D01*
X868433Y337644D01*
X868494Y337660D01*
X868555Y337673D01*
X868618Y337682D01*
X868680Y337687D01*
X868743Y337689D01*
X867804Y337153D02*
X867000Y335678D01*
X867670Y341384D02*
X867670Y342992D01*
X867670Y341384D02*
X867668Y341319D01*
X867662Y341255D01*
X867652Y341191D01*
X867639Y341127D01*
X867621Y341065D01*
X867600Y341004D01*
X867576Y340944D01*
X867547Y340886D01*
X867515Y340829D01*
X867480Y340775D01*
X867442Y340723D01*
X867400Y340673D01*
X867356Y340626D01*
X867309Y340582D01*
X867259Y340540D01*
X867207Y340502D01*
X867153Y340467D01*
X867096Y340435D01*
X867038Y340406D01*
X866978Y340382D01*
X866917Y340361D01*
X866855Y340343D01*
X866791Y340330D01*
X866727Y340320D01*
X866663Y340314D01*
X866598Y340312D01*
X866598Y340311D02*
X866330Y340311D01*
X866259Y340313D01*
X866187Y340319D01*
X866117Y340328D01*
X866047Y340341D01*
X865977Y340358D01*
X865909Y340379D01*
X865842Y340403D01*
X865776Y340431D01*
X865712Y340462D01*
X865649Y340497D01*
X865589Y340535D01*
X865530Y340576D01*
X865474Y340620D01*
X865420Y340667D01*
X865369Y340716D01*
X865321Y340769D01*
X865275Y340824D01*
X865233Y340881D01*
X865193Y340941D01*
X865157Y341002D01*
X865124Y341066D01*
X865095Y341131D01*
X865069Y341197D01*
X865046Y341265D01*
X865027Y341334D01*
X865012Y341404D01*
X865001Y341474D01*
X864993Y341545D01*
X864989Y341616D01*
X864989Y341688D01*
X864993Y341759D01*
X865001Y341830D01*
X865012Y341900D01*
X865027Y341970D01*
X865046Y342039D01*
X865069Y342107D01*
X865095Y342173D01*
X865124Y342238D01*
X865157Y342302D01*
X865193Y342363D01*
X865233Y342423D01*
X865275Y342480D01*
X865321Y342535D01*
X865369Y342588D01*
X865420Y342637D01*
X865474Y342684D01*
X865530Y342728D01*
X865589Y342769D01*
X865649Y342807D01*
X865712Y342842D01*
X865776Y342873D01*
X865842Y342901D01*
X865909Y342925D01*
X865977Y342946D01*
X866047Y342963D01*
X866117Y342976D01*
X866187Y342985D01*
X866259Y342991D01*
X866330Y342993D01*
X866330Y342992D02*
X867670Y342992D01*
X867761Y342990D01*
X867852Y342984D01*
X867942Y342975D01*
X868033Y342961D01*
X868122Y342944D01*
X868210Y342923D01*
X868298Y342898D01*
X868385Y342869D01*
X868470Y342837D01*
X868554Y342802D01*
X868636Y342762D01*
X868716Y342720D01*
X868795Y342674D01*
X868871Y342624D01*
X868945Y342572D01*
X869018Y342516D01*
X869087Y342457D01*
X869154Y342396D01*
X869219Y342331D01*
X869280Y342264D01*
X869339Y342195D01*
X869395Y342122D01*
X869447Y342048D01*
X869497Y341972D01*
X869543Y341893D01*
X869585Y341813D01*
X869625Y341731D01*
X869660Y341647D01*
X869692Y341562D01*
X869721Y341475D01*
X869746Y341387D01*
X869767Y341299D01*
X869784Y341210D01*
X869798Y341119D01*
X869807Y341029D01*
X869813Y340938D01*
X869815Y340847D01*
X5300Y245000D02*
X5327Y247209D01*
X5408Y249416D01*
X5544Y251621D01*
X5733Y253822D01*
X5977Y256017D01*
X6274Y258206D01*
X6625Y260387D01*
X7029Y262558D01*
X7487Y264719D01*
X7997Y266868D01*
X8560Y269004D01*
X9175Y271126D01*
X9842Y273231D01*
X10561Y275320D01*
X11331Y277391D01*
X12151Y279442D01*
X13021Y281472D01*
X13941Y283480D01*
X14910Y285465D01*
X15927Y287426D01*
X16992Y289361D01*
X18104Y291269D01*
X19263Y293150D01*
X20468Y295001D01*
X21717Y296823D01*
X23011Y298613D01*
X24349Y300371D01*
X25729Y302095D01*
X27151Y303786D01*
X28614Y305440D01*
X30118Y307059D01*
X31660Y308640D01*
X33241Y310182D01*
X34860Y311686D01*
X36514Y313149D01*
X38205Y314571D01*
X39929Y315951D01*
X41687Y317289D01*
X43477Y318583D01*
X45299Y319832D01*
X47150Y321037D01*
X49031Y322196D01*
X50939Y323308D01*
X52874Y324373D01*
X54835Y325390D01*
X56820Y326359D01*
X58828Y327279D01*
X60858Y328149D01*
X62909Y328969D01*
X64980Y329739D01*
X67069Y330458D01*
X69174Y331125D01*
X71296Y331740D01*
X73432Y332303D01*
X75581Y332813D01*
X77742Y333271D01*
X79913Y333675D01*
X82094Y334026D01*
X84283Y334323D01*
X86478Y334567D01*
X88679Y334756D01*
X90884Y334892D01*
X93091Y334973D01*
X95300Y335000D01*
X97509Y334973D01*
X99716Y334892D01*
X101921Y334756D01*
X104122Y334567D01*
X106317Y334323D01*
X108506Y334026D01*
X110687Y333675D01*
X112858Y333271D01*
X115019Y332813D01*
X117168Y332303D01*
X119304Y331740D01*
X121426Y331125D01*
X123531Y330458D01*
X125620Y329739D01*
X127691Y328969D01*
X129742Y328149D01*
X131772Y327279D01*
X133780Y326359D01*
X135765Y325390D01*
X137726Y324373D01*
X139661Y323308D01*
X141569Y322196D01*
X143450Y321037D01*
X145301Y319832D01*
X147123Y318583D01*
X148913Y317289D01*
X150671Y315951D01*
X152395Y314571D01*
X154086Y313149D01*
X155740Y311686D01*
X157359Y310182D01*
X158940Y308640D01*
X160482Y307059D01*
X161986Y305440D01*
X163449Y303786D01*
X164871Y302095D01*
X166251Y300371D01*
X167589Y298613D01*
X168883Y296823D01*
X170132Y295001D01*
X171337Y293150D01*
X172496Y291269D01*
X173608Y289361D01*
X174673Y287426D01*
X175690Y285465D01*
X176659Y283480D01*
X177579Y281472D01*
X178449Y279442D01*
X179269Y277391D01*
X180039Y275320D01*
X180758Y273231D01*
X181425Y271126D01*
X182040Y269004D01*
X182603Y266868D01*
X183113Y264719D01*
X183571Y262558D01*
X183975Y260387D01*
X184326Y258206D01*
X184623Y256017D01*
X184867Y253822D01*
X185056Y251621D01*
X185192Y249416D01*
X185273Y247209D01*
X185300Y245000D01*
X185273Y242791D01*
X185192Y240584D01*
X185056Y238379D01*
X184867Y236178D01*
X184623Y233983D01*
X184326Y231794D01*
X183975Y229613D01*
X183571Y227442D01*
X183113Y225281D01*
X182603Y223132D01*
X182040Y220996D01*
X181425Y218874D01*
X180758Y216769D01*
X180039Y214680D01*
X179269Y212609D01*
X178449Y210558D01*
X177579Y208528D01*
X176659Y206520D01*
X175690Y204535D01*
X174673Y202574D01*
X173608Y200639D01*
X172496Y198731D01*
X171337Y196850D01*
X170132Y194999D01*
X168883Y193177D01*
X167589Y191387D01*
X166251Y189629D01*
X164871Y187905D01*
X163449Y186214D01*
X161986Y184560D01*
X160482Y182941D01*
X158940Y181360D01*
X157359Y179818D01*
X155740Y178314D01*
X154086Y176851D01*
X152395Y175429D01*
X150671Y174049D01*
X148913Y172711D01*
X147123Y171417D01*
X145301Y170168D01*
X143450Y168963D01*
X141569Y167804D01*
X139661Y166692D01*
X137726Y165627D01*
X135765Y164610D01*
X133780Y163641D01*
X131772Y162721D01*
X129742Y161851D01*
X127691Y161031D01*
X125620Y160261D01*
X123531Y159542D01*
X121426Y158875D01*
X119304Y158260D01*
X117168Y157697D01*
X115019Y157187D01*
X112858Y156729D01*
X110687Y156325D01*
X108506Y155974D01*
X106317Y155677D01*
X104122Y155433D01*
X101921Y155244D01*
X99716Y155108D01*
X97509Y155027D01*
X95300Y155000D01*
X93091Y155027D01*
X90884Y155108D01*
X88679Y155244D01*
X86478Y155433D01*
X84283Y155677D01*
X82094Y155974D01*
X79913Y156325D01*
X77742Y156729D01*
X75581Y157187D01*
X73432Y157697D01*
X71296Y158260D01*
X69174Y158875D01*
X67069Y159542D01*
X64980Y160261D01*
X62909Y161031D01*
X60858Y161851D01*
X58828Y162721D01*
X56820Y163641D01*
X54835Y164610D01*
X52874Y165627D01*
X50939Y166692D01*
X49031Y167804D01*
X47150Y168963D01*
X45299Y170168D01*
X43477Y171417D01*
X41687Y172711D01*
X39929Y174049D01*
X38205Y175429D01*
X36514Y176851D01*
X34860Y178314D01*
X33241Y179818D01*
X31660Y181360D01*
X30118Y182941D01*
X28614Y184560D01*
X27151Y186214D01*
X25729Y187905D01*
X24349Y189629D01*
X23011Y191387D01*
X21717Y193177D01*
X20468Y194999D01*
X19263Y196850D01*
X18104Y198731D01*
X16992Y200639D01*
X15927Y202574D01*
X14910Y204535D01*
X13941Y206520D01*
X13021Y208528D01*
X12151Y210558D01*
X11331Y212609D01*
X10561Y214680D01*
X9842Y216769D01*
X9175Y218874D01*
X8560Y220996D01*
X7997Y223132D01*
X7487Y225281D01*
X7029Y227442D01*
X6625Y229613D01*
X6274Y231794D01*
X5977Y233983D01*
X5733Y236178D01*
X5544Y238379D01*
X5408Y240584D01*
X5327Y242791D01*
X5300Y245000D01*
X185300Y245000D02*
X245300Y245000D01*
X245300Y235000D01*
X245300Y205000D02*
X245300Y195000D01*
X245300Y295000D02*
X170300Y295000D01*
X170300Y195000D02*
X245300Y195000D01*
X245300Y295000D02*
X245300Y305000D01*
X154300Y315000D02*
X152300Y315000D01*
X235300Y315000D02*
X235300Y305000D01*
X245300Y305000D01*
X245300Y295000D02*
X245300Y285000D01*
X235300Y285000D01*
X235300Y255000D01*
X245300Y255000D01*
X245300Y245000D01*
X245300Y235000D02*
X235300Y235000D01*
X235300Y205000D01*
X245300Y205000D01*
X245300Y195000D02*
X245300Y185000D01*
X235300Y185000D01*
X235300Y175000D01*
X152300Y175000D01*
X154300Y315000D02*
X235300Y315000D01*
X479000Y445000D02*
X479000Y705000D01*
X279000Y445000D02*
X219000Y445000D01*
X279000Y445000D02*
X279000Y465000D01*
X419000Y465000D01*
X419000Y445000D01*
X479000Y445000D01*
X239000Y545000D02*
X239000Y655000D01*
X239000Y545000D02*
X459000Y545000D01*
X459000Y655000D01*
X239000Y655000D01*
X219000Y705000D02*
X219000Y445000D01*
X219000Y705000D02*
X479000Y705000D01*
X699620Y664696D02*
X699620Y486896D01*
X1182220Y486896D01*
X1182220Y664696D01*
X699620Y664696D01*
X674220Y690096D02*
X674220Y461496D01*
X1207620Y461496D01*
X1207620Y512296D01*
X1207620Y639296D01*
X1207620Y690096D01*
X674220Y690096D01*
X1207620Y639296D02*
X1334620Y639296D01*
X1334620Y512296D01*
X1207620Y512296D01*
M02*
