M48
;GenerationSoftware,Autodesk,EAGLE,9.7.0*%
;CreationDate,2021-03-21T08:35:25Z*%
FMAT,2
ICI,OFF
METRIC,TZ,000.000
T7C0.800
T6C1.000
T5C1.016
T4C1.092
T3C1.707
T2C1.753
T1C4.089
%
G90
M71
T1
X34830Y14901
X94030Y33900
X34810Y33880
X113862Y33842
X94000Y15000
X54920Y33880
X54820Y14960
X74809Y33966
X113830Y15080
X74800Y14938
T2
X116370Y20160
X110052Y36382
X116402Y38922
X90190Y17540
X96540Y20080
X51010Y17500
X57360Y20040
X51110Y36420
X31000Y36420
X37350Y38960
X70999Y36506
X77349Y39046
X77340Y20018
X90220Y36440
X96570Y38980
X57460Y38960
X70990Y17478
X31020Y17441
X37370Y19981
X110020Y17620
T3
X29750Y14901
X39910Y14901
X108782Y33842
X118942Y33842
X49740Y14960
X59900Y14960
X69720Y14938
X79880Y14938
X88920Y15000
X99080Y15000
X108750Y15080
X118910Y15080
X60000Y33880
X29730Y33880
X88950Y33900
X99110Y33900
X79889Y33966
X69729Y33966
X39890Y33880
X49840Y33880
T4
X73530Y9858
X76070Y9858
X92730Y9920
X95270Y9920
X112560Y10000
X115100Y10000
X53650Y28800
X56190Y28800
X33540Y28800
X36080Y28800
X33560Y9821
X36100Y9821
X73539Y28886
X76079Y28886
X112592Y28762
X115132Y28762
X92760Y28820
X95300Y28820
X53550Y9880
X56090Y9880
T5
X108062Y66470
X85202Y48690
X80122Y48690
X77582Y48690
X75042Y48690
X75042Y66470
X72502Y48690
X115682Y66470
X113142Y66470
X110602Y66470
X69962Y48690
X105522Y66470
X102982Y66470
X100442Y66470
X97902Y66470
X95362Y66470
X92822Y66470
X90282Y66470
X87742Y66470
X85202Y66470
X82662Y66470
X80122Y66470
X77582Y66470
X82662Y48690
X72502Y66470
X69962Y66470
X118222Y66470
X118222Y48690
X115682Y48690
X113142Y48690
X110602Y48690
X108062Y48690
X105522Y48690
X102982Y48690
X100442Y48690
X97902Y48690
X95362Y48690
X92822Y48690
X90282Y48690
X87742Y48690
T6
X24530Y24500
X24530Y19500
X24530Y29500
T7
X31100Y69000
X33640Y69000
X38720Y69000
X36180Y69000
M30